<?xml version="1.0" encoding="UTF-8" standalone="no"?>
<svg
   xmlns:dc="http://purl.org/dc/elements/1.1/"
   xmlns:cc="http://creativecommons.org/ns#"
   xmlns:rdf="http://www.w3.org/1999/02/22-rdf-syntax-ns#"
   xmlns:svg="http://www.w3.org/2000/svg"
   xmlns="http://www.w3.org/2000/svg"
   xmlns:sodipodi="http://sodipodi.sourceforge.net/DTD/sodipodi-0.dtd"
   xmlns:inkscape="http://www.inkscape.org/namespaces/inkscape"
   width="196.76514mm"
   height="223.18909mm"
   viewBox="0 0 196.76514 223.18909"
   version="1.1"
   id="svg524030"
   sodipodi:docname="portrait-drawing.svg"
   inkscape:version="0.92.4 (5da689c313, 2019-01-14)">
  <sodipodi:namedview
     pagecolor="#ffffff"
     bordercolor="#666666"
     borderopacity="1"
     objecttolerance="10"
     gridtolerance="10"
     guidetolerance="10"
     inkscape:pageopacity="0"
     inkscape:pageshadow="2"
     inkscape:window-width="1920"
     inkscape:window-height="1017"
     id="namedview915"
     showgrid="false"
     fit-margin-top="0"
     fit-margin-left="0"
     fit-margin-right="0"
     fit-margin-bottom="0"
     inkscape:zoom="0.50955311"
     inkscape:cx="150.0671"
     inkscape:cy="720.19985"
     inkscape:window-x="-8"
     inkscape:window-y="-8"
     inkscape:window-maximized="1"
     inkscape:current-layer="svg524030" />
  <defs
     id="defs524024">
    <clipPath
       clipPathUnits="userSpaceOnUse"
       id="clipPath523980">
      <path
         id="path523982"
         style="opacity:1;fill:#ffdfbb;fill-opacity:1;fill-rule:evenodd;stroke:none;stroke-width:0.73808849;stroke-linecap:round;stroke-linejoin:miter;stroke-miterlimit:4;stroke-dasharray:none;stroke-dashoffset:0;stroke-opacity:1"
         d="m -102.97803,894.16461 a 62.651132,62.651132 0 0 1 -59.46368,62.56999 62.651132,62.651132 0 0 1 -65.51426,-56.20334 62.651132,62.651132 0 0 1 52.79745,-68.28883 62.651132,62.651132 0 0 1 70.88652,49.25481"
         inkscape:connector-curvature="0" />
    </clipPath>
  </defs>
  <metadata
     id="metadata524027">
    <rdf:RDF>
      <cc:Work
         rdf:about="">
        <dc:format>image/svg+xml</dc:format>
        <dc:type
           rdf:resource="http://purl.org/dc/dcmitype/StillImage" />
        <dc:title></dc:title>
      </cc:Work>
    </rdf:RDF>
  </metadata>
  <g
     id="g936"
     transform="matrix(1.2182334,0,0,1.2182334,-24.181744,-27.799079)">
    <path
       id="path1478-1-0-5"
       style="fill:#002d3b;fill-opacity:0.98431373;fill-rule:nonzero;stroke:none;stroke-width:0.24672528"
       d="m 120.68444,30.372081 c 0,-0.0025 -0.002,-0.0025 -0.002,-0.0025 0.007,0.005 0.014,0.01399 0.028,0.01399 -0.007,-0.0049 -0.014,-0.007 -0.021,-0.01399"
       inkscape:connector-curvature="0" />
    <path
       id="path1482-4-5-1"
       style="fill:#002d3b;fill-opacity:0.98431373;fill-rule:nonzero;stroke:none;stroke-width:0.24672528"
       d="m 139.05313,52.246688 c 0.003,0.0025 0.003,0.007 0.005,0.007 -0.028,-0.04896 -0.049,-0.106305 -0.0713,-0.160157 0.021,0.04896 0.042,0.10141 0.0699,0.150366"
       inkscape:connector-curvature="0" />
    <path
       id="path1484-4-8-5"
       style="fill:#002d3b;fill-opacity:0.98431373;fill-rule:nonzero;stroke:none;stroke-width:0.24672528"
       d="m 139.08279,52.308373 c -0.007,-0.01399 -0.014,-0.03497 -0.028,-0.04896 0.007,0.01399 0.014,0.03497 0.028,0.04896"
       inkscape:connector-curvature="0" />
    <path
       id="path1486-0-2-7"
       style="fill:#002d3b;fill-opacity:0.98431373;fill-rule:nonzero;stroke:none;stroke-width:0.24672528"
       d="m 139.30484,52.794441 c -0.007,-0.01399 -0.014,-0.02797 -0.021,-0.04196 0.007,0.01399 0.014,0.02797 0.021,0.04196"
       inkscape:connector-curvature="0" />
    <path
       id="path1488-0-8-1"
       style="fill:#002d3b;fill-opacity:0.98431373;fill-rule:nonzero;stroke:none;stroke-width:0.24672528"
       d="m 138.91004,51.933366 c 0.003,0.005 0.003,0.007 0.005,0.007 -0.002,-0.0024 -0.002,-0.007 -0.005,-0.007"
       inkscape:connector-curvature="0" />
    <path
       id="path1506-1-5-7"
       style="fill:#002d3b;fill-opacity:0.98431373;fill-rule:nonzero;stroke:none;stroke-width:0.24672528"
       d="m 119.19428,144.03098 c -2.49441,12.22521 -18.38352,12.02539 -27.393966,8.48738 -14.398878,-5.65252 -11.265452,-24.43574 -10.885479,-37.41592 6.68627,4.85802 12.222761,11.71697 21.371335,10.47599 7.94452,-1.07578 14.39643,-7.91501 17.14247,-15.15141 -0.80184,6.37043 -1.80111,12.75324 -2.413,19.14584 -0.19512,2.03302 -0.82156,4.43616 -0.34269,6.46422 0.70567,3.00509 3.23211,4.51756 2.52154,7.9939 z M 70.342607,91.133051 c -2.070021,-1.67767 -3.612011,-3.723073 -4.152351,-6.367983 0.942483,1.352109 2.78059,0.8438 3.187698,-0.389554 0.646226,2.531401 1.376727,5.04301 2.018197,7.576929 -0.350388,-0.271359 -0.708121,-0.54062 -1.053544,-0.819182 z M 71.161789,96.075 c 0.02098,0.01399 0.04196,0.02797 0.05595,0.04196 -0.02098,-0.01399 -0.04196,-0.02797 -0.05595,-0.04196 z M 62.082246,62.076245 c 0.311223,-8.201124 3.819307,-16.757603 10.473545,-21.854954 0.0024,0.09651 0.03497,0.18044 0.08113,0.261568 -0.123091,0.912899 -0.123091,1.830693 -0.007,2.733731 -5.593281,4.76179 -8.800701,11.647872 -9.703739,18.901618 -0.239187,-0.02798 -0.607061,-0.07623 -0.8438,-0.04196 z M 78.536388,34.798309 c 5.576006,-7.140237 14.564211,-8.946242 23.098452,-9.530993 9.7999,2.208148 21.15173,8.514446 21.34168,19.701008 C 117.99764,28.610416 89.360252,24.1595 77.687622,36.231755 77.94919,35.74289 78.21845,35.257241 78.536388,34.798309 Z M 108.6517,25.3981 c 4.37685,0.774702 8.38618,2.395652 12.0303,4.971463 -0.007,-0.007 -0.014,-0.01399 -0.021,-0.01399 0.049,0.03497 0.0986,0.07413 0.15037,0.108403 -0.035,-0.02797 -0.0713,-0.04896 -0.10351,-0.07413 4.43861,3.390029 6.65417,8.213503 8.19378,13.498358 -2.09226,1.884966 -1.88503,9.069613 -4.18941,11.860064 4.51749,-15.01566 -3.43689,-24.709538 -16.82419,-30.455773 0.25388,0.03497 0.50845,0.06294 0.76484,0.108403 z m 27.67022,29.046945 c 0.86108,2.639944 2.00834,5.223169 2.02806,8.077753 -0.002,0.01399 -0.005,0.02797 -0.007,0.04196 -0.014,0.03497 -0.035,0.06994 -0.0559,0.10141 -0.042,0.04196 -0.0811,0.08882 -0.1231,0.130784 -0.34059,0.211911 -0.70812,0.369971 -1.05347,0.567196 0.2294,-4.650798 -1.92945,-9.832005 -3.45913,-14.176826 1.04369,1.667879 1.88993,3.451714 2.67205,5.25772 z m -1.48779,26.009752 c -0.6763,4.357199 -3.66138,8.640334 -6.57765,11.867477 0.90296,-2.88172 1.90224,-5.733856 2.97795,-8.55396 -0.028,0.07413 -0.0559,0.14547 -0.086,0.219605 0.0629,-0.160158 0.12798,-0.321015 0.18743,-0.483271 -0.028,0.07134 -0.049,0.143372 -0.079,0.211912 0.5651,-1.477857 1.21139,-2.918717 1.93434,-4.325098 0.50845,0.140575 0.98445,0.0025 1.431,-0.414732 0.0699,0.21471 0.15037,0.424523 0.20002,0.644128 0.028,0.28115 0.028,0.555307 0.014,0.833939 z M 68.40337,69.778992 c 0.36018,-4.510153 1.211464,-8.637816 3.037192,-12.792685 -0.587478,4.441054 -2.00337,8.477448 -3.037192,12.792685 z m 66.69478,-5.524183 c 0.0888,-0.754979 -1.6876,5.339127 -1.41373,5.827643 -0.8759,1.909654 -1.75425,3.824273 -2.61777,5.74134 -0.12799,0.108403 -0.26856,0.211911 -0.38746,0.330806 1.85049,-6.385258 0.61686,-12.538601 -1.24594,-18.743698 1.44086,-2.003441 2.33649,-4.231381 2.68436,-6.678857 1.47051,4.199279 3.42457,8.998066 2.98047,13.522976 z m -6.00032,14.361881 c -0.0762,0.148269 -0.15316,0.298635 -0.21961,0.451799 0.014,-0.150366 0.028,-0.30353 0.035,-0.453897 0.063,0.007 0.121,0.005 0.18254,0.0024 z m -2.09226,-17.865348 c -0.007,-0.06294 -0.063,-0.10141 -0.10351,-0.148268 0.28605,-0.295837 0.58958,-0.579785 0.85121,-0.895625 1.13244,4.056187 2.16129,8.327013 1.48031,12.553428 0.005,-3.16301 -0.91535,-5.588315 -1.72705,-8.571235 -0.15806,-0.981998 -0.30842,-1.961478 -0.50075,-2.93851 z M 82.634467,49.12564 c 7.078552,-2.299487 13.774683,-6.227337 21.173973,-2.733731 5.15658,2.435167 9.19053,7.951935 7.44125,13.819093 1.6827,-18.669704 -25.131408,-3.424578 -30.65559,-9.617366 -0.190231,-0.271359 -0.323113,-0.555307 -0.471381,-0.846248 0.846248,-0.167851 1.6876,-0.358082 2.511608,-0.621748 z m -5.030701,-0.806803 c -0.02098,0.03497 -0.04896,0.06994 -0.06294,0.10141 0.01399,-0.02798 0.02797,-0.06994 0.04896,-0.09861 0.005,-0.0024 0.01399,-0.0024 0.01399,-0.0024 z m 38.827124,6.020112 c -0.25667,1.9812 -1.1374,4.169625 -2.35124,5.798059 1.17195,-7.241437 -3.35058,-13.767269 -10.00475,-16.449177 -8.832734,-3.560257 -15.427735,1.672774 -23.823776,3.693489 7.692886,-4.125285 12.198074,-9.486652 21.998046,-8.099994 7.55721,1.070749 14.82816,6.681304 14.18172,15.057623 z m 2.84724,-11.406097 c 2.69918,6.276644 3.43934,12.499086 -1.65801,17.621125 -0.4567,0.04896 -0.87584,0.177642 -1.25826,0.392352 6.59738,-11.756486 -3.61453,-22.802333 -15.21309,-24.2013 -10.547541,-1.275597 -15.368498,5.477324 -24.139615,9.247255 -0.471382,-0.688189 -0.804286,-1.44086 -1.00172,-2.252559 2.316761,-1.993579 2.731283,-5.358919 5.7512,-7.322844 3.051949,-1.9812 7.194509,-2.85955 10.784349,-3.340652 9.160886,-1.228669 22.212686,0.451798 26.735146,9.856693 z m -50.887069,7.984037 c 1.169431,-2.158842 2.861997,-4.132699 4.702552,-5.748753 2.829966,7.880459 -6.68627,17.088199 -7.1131,25.198054 0.387455,-7.396769 -0.831422,-13.463739 2.410548,-19.449301 z m -0.340597,27.536986 c -0.303531,-1.063405 -0.59727,-2.136672 -0.895625,-3.204973 0.25877,-0.02098 0.478375,-0.125888 0.649024,-0.290941 -0.02798,1.389106 0.127986,2.763315 0.458792,4.127733 -0.007,-0.0024 -0.02098,-0.0024 -0.02797,-0.0024 -0.06294,-0.209814 -0.125888,-0.419627 -0.185335,-0.629441 z M 125.45106,72.58427 c 0.12099,5.516768 0.028,11.193905 -0.19723,16.700813 -0.94003,3.140839 -2.53881,7.386977 -2.62511,10.749867 -4.6508,6.19034 -8.95121,14.17928 -14.52477,19.54554 -4.52491,1.1374 -9.081922,2.09967 -13.717893,0.78211 -5.265132,-2.47713 -13.431707,-9.68394 -16.113615,-14.84788 -3.249383,-8.869796 -6.002837,-23.182301 -5.46991,-32.550478 0.244083,-4.231381 6.062004,-21.452741 2.139119,-23.372326 0.116097,-0.229396 0.227299,-0.456694 0.342696,-0.68609 0.991789,0.48397 1.732011,0.342695 2.227941,-0.421726 -0.09372,0.239188 -0.09651,0.476277 -0.005,0.710569 -2.023163,1.830694 1.635777,4.774099 3.012504,5.558732 4.924675,2.805207 10.804141,-0.560203 15.726298,-1.354557 6.38274,-1.033752 17.09806,2.34145 11.72439,10.599294 -0.14827,-0.03497 -0.29374,-0.08602 -0.42942,-0.15806 0.43641,-0.384658 0.66091,-0.853662 0.6735,-1.413794 -0.23709,-1.500027 -2.8201,-2.857032 -3.05943,-0.335702 -1.45072,1.391484 -1.05103,5.060285 1.46065,4.966568 5.13435,2.148981 12.66687,-0.148268 16.87846,-3.456609 0.51824,2.040367 1.34959,4.041359 1.83069,6.081727 0.10351,0.959757 0.1084,1.936789 0.12589,2.901512 z m -0.53083,21.107318 c 0.005,-0.05595 0.007,-0.108404 0.014,-0.160158 -0.005,0.04896 -0.014,0.108404 -0.014,0.160158 z M 19.849845,198.20939 c 0,-0.005 0,-0.007 0.0024,-0.014 -0.0013,0.006 -0.0017,0.007 -0.0024,0.014 z M 180.6826,190.83724 c -1.53709,-13.11097 -6.12614,-24.10751 -17.37438,-31.37608 -13.53781,-8.74636 -27.5765,-16.80195 -41.34377,-25.18819 -0.73771,-11.15195 -0.55251,-28.60529 6.02011,-38.239932 4.07835,-5.978149 15.45983,-10.897859 9.40028,-20.031604 2.43761,-3.096429 1.50254,-5.511873 1.62836,-8.97093 0.021,-0.09162 0.042,-0.182538 0.0762,-0.283948 4.55205,-3.012504 2.56099,-8.808115 0.60217,-13.088802 0.0629,0.132882 0.12589,0.274156 0.18743,0.409836 -0.18533,-0.429419 -0.37766,-0.853662 -0.57489,-1.273079 0.042,0.09861 0.0888,0.200022 0.13288,0.300733 -0.0559,-0.13568 -0.12099,-0.269261 -0.18253,-0.402143 0.007,0.02098 0.021,0.04196 0.028,0.05595 l -0.021,-0.04196 c 0.007,0.02098 0.014,0.03497 0.028,0.05595 -0.0629,-0.130784 -0.12309,-0.266463 -0.18253,-0.402143 0.042,0.09651 0.086,0.195127 0.13078,0.293739 -0.1063,-0.222402 -0.20212,-0.446903 -0.30563,-0.671403 0.014,0.03497 0.035,0.07623 0.0559,0.113299 -0.021,-0.04896 -0.049,-0.09861 -0.086,-0.184636 0.014,0.03497 0.028,0.06994 0.042,0.10141 -0.85863,-1.904758 -5.32926,-11.339516 -8.24553,-8.943794 C 125.2705,29.090052 114.22703,22.45071 99.329775,22.983637 c -0.05595,-0.0025 -4.793891,-0.582583 -5.44767,0.451099 -8.383732,1.051096 -17.056168,4.969086 -20.209316,13.333095 -5.911498,2.220527 -10.789245,10.058954 -12.65204,15.770639 -0.824078,2.523988 -4.167178,13.172658 0.665808,12.745827 0.202121,1.053544 0.38256,2.109536 0.542718,3.170423 -0.01399,-0.09651 -0.02798,-0.195126 -0.04196,-0.295837 0.644128,4.105493 1.480375,8.119717 2.440133,12.158628 -6.950286,5.267581 3.750208,14.226132 8.107337,16.903144 0.863593,3.402335 1.381693,7.127855 2.857102,10.330375 -0.890659,3.82421 1.852934,10.30325 2.235354,14.16452 0.481172,4.91719 0.350389,9.98986 -0.305629,14.89229 -5.983114,-0.62664 -10.79428,5.46495 -14.751714,9.07703 -6.752851,6.16565 -13.99177,8.58109 -22.168276,12.33627 -10.803498,4.96097 -16.176943,12.25521 -18.573161,21.2467 1.083456,1.44352 3.239571,4.33965 3.822076,4.87698 0.741034,-6.80475 1.581722,-14.1769 7.366486,-18.70474 6.276644,-4.9172 15.820015,-5.71414 22.876326,-9.52603 7.557207,-4.07836 14.339711,-9.59764 19.829344,-16.20244 2.699182,26.30336 55.646407,25.51138 46.172137,-0.1063 9.85425,5.85233 19.70842,11.70459 29.56511,17.55447 8.41829,4.99622 17.72967,9.00793 21.25293,18.81035 2.89655,8.06048 0.52146,16.15572 1.95652,24.24075 0.21484,1.21034 0.57041,3.34393 1.45903,4.69066 1.20863,-0.74715 5.03821,-3.68188 5.03821,-3.68188 -0.90459,-3.7749 -0.50999,-8.89778 -0.6819,-10.38186"
       inkscape:connector-curvature="0" />
    <path
       id="path1508-5-4-6"
       style="fill:#002d3b;fill-opacity:0.98431373;fill-rule:nonzero;stroke:none;stroke-width:0.24672528"
       d="m 49.98782,197.49841 c 0.01399,-0.90549 -2.319209,-18.80049 -6.03242,-11.96372 -1.611159,0.9178 -1.174467,2.5363 -0.510547,3.8119 0.991789,2.74114 -0.313321,10.69063 2.696665,12.36837 0.03287,0.3364 -0.222263,1.3733 0.552788,1.90874 0,0 2.794123,2.00219 3.278471,2.2648 0,0 0.116586,-0.36717 0.170648,-0.58608 0.0024,0 0.0024,0 0.0049,0.003 0.486068,-1.68515 -0.07903,-4.39664 -0.248979,-6.03739 0.08393,-0.58747 0.113299,-1.17684 0.08882,-1.769"
       inkscape:connector-curvature="0" />
    <path
       id="path1510-6-7-5"
       style="fill:#002d3b;fill-opacity:0.98431373;fill-rule:nonzero;stroke:none;stroke-width:0.24672528"
       d="m 157.55261,182.00941 c -3.24197,-1.0881 -5.27003,18.76593 -5.41809,21.50701 0.002,0 0.007,0 0.014,0 0.035,2.08981 1.42114,2.84479 3.20497,2.376 1.29036,-0.3406 1.81097,-6.65914 1.94665,-7.41412 0.62175,-3.50346 2.64491,-8.6255 1.55437,-12.24248 0.21961,-1.32245 0.38746,-3.64663 -1.30021,-4.22641"
       inkscape:connector-curvature="0" />
    <path
       id="path490-1-6-0-7"
       style="fill:#002d3b;fill-opacity:0.98431373;fill-rule:nonzero;stroke:none;stroke-width:0.24672528"
       d="m 97.576622,99.779889 c 2.250111,1.245941 6.540658,1.909651 5.003568,-1.862795 -0.65112,-1.603675 -4.766758,-1.268184 -6.037389,-2.667081 -0.06294,-0.09372 -0.123091,-0.190231 -0.174845,-0.288843 -0.03497,-0.09372 -0.05595,-0.187434 -0.07623,-0.283948 -0.05595,-0.935069 2.85955,-21.34168 -1.332316,-17.727221 -0.927726,0.79939 0.207016,11.731797 0.01399,13.671105 -0.392351,3.930298 -1.889861,6.681304 2.605465,9.158433"
       inkscape:connector-curvature="0" />
    <path
       id="path492-7-9-3-2"
       style="fill:#002d3b;fill-opacity:0.98431373;fill-rule:nonzero;stroke:none;stroke-width:0.24672528"
       d="m 94.677558,106.4735 c 1.063405,0.33081 2.148981,0.48397 3.259244,0.46369 0.07413,0.014 0.145471,0.035 0.219605,0.0559 6.488833,3.21735 17.895003,-5.12449 2.605393,-1.34959 -0.0629,0.003 -0.12798,0.003 -0.19023,0 -1.041163,-0.21471 -8.238189,0.14547 -5.894292,0.82653"
       inkscape:connector-curvature="0" />
    <path
       id="path494-3-6-4-8"
       style="fill:#002d3b;fill-opacity:0.98431373;fill-rule:nonzero;stroke:none;stroke-width:0.24672528"
       d="m 103.87306,110.3989 c -0.86849,0 -1.94176,0.57489 -2.77814,0.75009 -0.15527,0.007 -0.31332,0.014 -0.47138,0.005 -2.232911,-0.47837 -3.661462,1.55934 -1.036274,2.21564 2.373484,0.59447 6.249574,-2.97062 4.285654,-2.97062"
       inkscape:connector-curvature="0" />
    <path
       id="path496-6-6-2-4"
       style="fill:#002d3b;fill-opacity:0.98431373;fill-rule:nonzero;stroke:none;stroke-width:0.24672528"
       d="m 76.407549,74.860607 c 0.806803,1.586471 6.160757,1.517372 7.379564,1.539612 1.455687,0.456695 7.216749,2.028059 7.658336,-0.468583 0.453897,-0.681195 -0.424522,-1.559335 -1.014029,-1.729564 -0.06994,-0.09372 -0.153164,-0.174844 -0.251776,-0.241985 -0.279052,-1.509958 -4.140042,-1.208946 -5.373676,-1.354556 -0.5623,-0.162956 -1.117677,-0.311224 -1.709841,-0.298635 -0.357383,-0.09651 -0.72043,-0.07903 -1.085576,0.04896 -0.409835,-0.106305 -0.82156,-0.04896 -1.238529,0.177643 -0.584681,-1.342178 -3.666353,-0.05595 -4.428746,0.153164 -0.804355,-0.239188 -1.475409,-0.08882 -2.013301,0.453896 -2.018197,0.246881 -0.520338,2.921235 2.077434,1.72215"
       inkscape:connector-curvature="0" />
    <path
       id="path498-5-6-7-1"
       style="fill:#002d3b;fill-opacity:0.98431373;fill-rule:nonzero;stroke:none;stroke-width:0.24672528"
       d="m 109.88569,75.978284 c 0.007,0 0.014,0 0.021,-0.0024 -0.007,0.0024 -0.014,0.0024 -0.021,0.0048 z m -2.16374,0.700708 c 0.71798,-0.232194 1.43596,-0.463688 2.15639,-0.69798 0.15317,-0.02098 0.30843,-0.04196 0.46159,-0.05595 0.90794,0.587478 3.34555,-0.328009 4.30531,-0.668606 1.22874,-0.256672 3.91064,-0.397247 4.9765,-1.29532 0.67839,0.162956 2.15387,0.537823 2.81514,0.08113 0.30563,0.03497 0.61195,0.06294 0.92024,0.08882 1.11271,0.407039 2.00344,-1.82328 -0.64623,-1.954064 -0.41193,-0.227298 -0.84128,-0.402142 -1.29035,-0.528031 -0.46858,-0.177642 -0.94004,-0.227298 -1.41372,-0.148268 -0.89808,-0.271359 -2.19095,-0.116097 -3.08902,-0.01399 -1.48282,-1.102851 -6.15824,0.449001 -7.37956,1.238599 -0.92025,0.241985 -2.23781,0.557405 -2.46972,1.657947 -0.14058,0.261568 -0.20212,0.54062 -0.18743,0.838905 -0.52524,0.819112 -0.24409,1.305181 0.84135,1.458135"
       inkscape:connector-curvature="0" />
    <path
       id="path500-5-5-1-4"
       style="fill:#002d3b;fill-opacity:0.98431373;fill-rule:nonzero;stroke:none;stroke-width:0.24672528"
       d="m 79.200518,81.162009 c 0.155262,-0.20212 0.345493,-0.362977 0.567196,-0.478375 0.09162,-0.02797 0.185335,-0.05595 0.279052,-0.07413 0.372769,-0.01399 0.74267,-0.02098 1.115229,-0.02098 -1.500097,2.3069 1.297767,4.517566 3.513329,4.280687 1.055992,0.48327 2.144015,0.07623 2.72387,-0.930174 0.772254,-0.328009 1.169431,-0.895624 1.191671,-1.704875 0.767289,0.660912 1.551922,2.825 2.73618,2.311796 1.801109,0.167851 -3.996949,-6.328468 -7.64358,-6.207545 -0.614054,-0.05595 -1.211394,-0.02098 -1.813419,0.184636 0.0025,0.0026 0.0025,0.005 0.0025,0.007 -5.381089,-0.851213 -5.869605,6.20272 -4.073461,4.786478 0.525233,-0.678397 0.90052,-1.455687 1.401415,-2.153876"
       inkscape:connector-curvature="0" />
    <path
       id="path502-5-7-8-2"
       style="fill:#002d3b;fill-opacity:0.98431373;fill-rule:nonzero;stroke:none;stroke-width:0.24672528"
       d="m 122.97694,80.106017 c -2.93355,-3.439334 -8.09503,-2.936061 -11.97602,-1.048578 -0.79695,-0.216808 -1.68019,0.740152 -2.09226,1.332316 -0.82898,0.715465 -1.56913,1.490166 -1.70733,2.607843 0.028,0.200023 0.049,0.532927 0.16785,0.69798 0.48607,1.245943 1.62102,0.332904 2.1194,-0.295837 0.36787,-0.328009 0.71798,-0.673502 1.05347,-1.036269 0.2294,-0.172747 0.47139,-0.325911 0.7254,-0.458793 0.014,0.127987 0.035,0.256672 0.056,0.38256 0.31612,0.782116 0.78456,1.445826 1.51982,1.892379 0.8389,0.362978 1.57164,0.43921 2.47713,0.308426 0.27905,0.04896 0.5623,0.03497 0.84135,-0.04196 1.67278,-0.232193 2.79787,-2.079952 2.64736,-3.649078 0.85121,0.143373 2.31921,1.280493 3.14818,0.999203 1.431,1.695014 2.40314,-0.07903 1.02145,-1.692497"
       inkscape:connector-curvature="0" />
    <path
       id="path504-5-1-1-9"
       style="fill:#002d3b;fill-opacity:0.98431373;fill-rule:nonzero;stroke:none;stroke-width:0.24672528"
       d="m 127.73929,59.610935 c -0.007,-0.08113 -0.021,-0.162955 -0.035,-0.244083 0.014,0.113299 0.028,0.227298 0.049,0.340597 -0.005,-0.03497 -0.007,-0.06294 -0.014,-0.09651"
       inkscape:connector-curvature="0" />
    <g
       id="g215752"
       style="fill:#002d3b;fill-opacity:0.98431373"
       transform="matrix(0.21066394,0,0,0.21066394,68.631803,51.641792)">
      <path
         id="path215748"
         d="m 77.916,98.576346 c -19.922,0 -39.772694,6.832994 -49.982694,22.347994 L 6.1991908,117.83688 C 2.9191211,117.37093 0,118.034 0,121.347 c 0,3.313 2.6971339,5.74107 6,6 l 17.966514,1.40849 c -2.169,6.025 -3.112514,11.10551 -3.112514,17.86751 0,31.464 25.598,48.04765 57.062,48.04765 31.464,0 57.062,-16.58365 57.062,-48.04765 0,-31.464 -25.598,-48.046654 -57.062,-48.046654 z m 0,84.094304 c -24.777675,-1.85479 -43.194373,-9.61686 -45.062,-27.0333 -3.392903,-31.6403 20.215,-45.062 45.062,-45.062 24.847,0 45.062,11.20065 45.062,36.04765 0,24.847 -2.48702,39.2347 -45.062,36.04765 z"
         style="fill:#002d3b;fill-opacity:0.98431373"
         inkscape:connector-curvature="0" />
      <path
         id="path215750"
         d="m 287.246,116.75549 -24.65556,4.22548 C 259.69444,116.56697 253.794,106.9 249.736,103.4 c -10.345,-8.924 -23.575,-9.330827 -37.253,-9.330827 -20.432,0 -38.381,6.293827 -48.462,22.478827 -4.376,-5.595 -11.20595,-9.79368 -18.821,-9.202 -17.94535,1.39434 -21.48552,5.51817 -24.97852,7.42917 -2.907,1.591 -3.974,5.237 -2.383,8.145 1.59,2.906 5.236,3.972 8.144,2.383 1.757,-0.962 8.43013,-6.55374 14.63613,-6.15536 6.54254,0.41998 16.47139,5.53319 16.47139,12.08919 0,0.408 0.042,0.807 0.119,1.193 -1.167,4.54 -1.788,9.296 -1.788,14.195 0,31.464 25.598,48.04765 57.062,48.04765 23.623,0 41.00237,-3.86176 49.32937,-25.95976 0.74546,-4.65035 2.27814,-8.39304 -0.82386,-9.56004 0,0 -7.1254,0.67869 -6.32151,7.86532 -6.575,17.451 -23.68794,18.10075 -42.184,15.65548 -23.43851,-3.09868 -45.76625,-0.49611 -45.062,-36.04765 0.4921,-24.84213 20.215,-40.55482 45.062,-40.55482 22.328,0 42.94031,9.97789 46.40431,31.99389 0.515,3.273 3.584,5.508 6.86,4.994 3.273,-0.515 3.61669,-2.09207 3.10269,-5.36507 -0.557,-3.542 -1.459,-8.4105 -2.66,-11.7535 l 21.19785,-1.26763 c 3.30709,-0.19776 5.85915,-0.0109 5.85915,-3.32387 0,-3.313 -2.73462,-5.1533 -6.001,-4.59351 z"
         style="fill:#002d3b;fill-opacity:0.98431373"
         inkscape:connector-curvature="0" />
    </g>
  </g>
  <g
     transform="matrix(0.21066394,0,0,0.21066394,54.597655,50.819607)"
     style="fill:#004553;fill-opacity:0.98431373"
     id="g215754" />
  <g
     transform="matrix(0.21066394,0,0,0.21066394,54.597655,50.819607)"
     style="fill:#004553;fill-opacity:0.98431373"
     id="g215756" />
  <g
     transform="matrix(0.21066394,0,0,0.21066394,54.597655,50.819607)"
     style="fill:#004553;fill-opacity:0.98431373"
     id="g215758" />
  <g
     transform="matrix(0.21066394,0,0,0.21066394,54.597655,50.819607)"
     style="fill:#004553;fill-opacity:0.98431373"
     id="g215760" />
  <g
     transform="matrix(0.21066394,0,0,0.21066394,54.597655,50.819607)"
     style="fill:#004553;fill-opacity:0.98431373"
     id="g215762" />
  <g
     transform="matrix(0.21066394,0,0,0.21066394,54.597655,50.819607)"
     style="fill:#004553;fill-opacity:0.98431373"
     id="g215764" />
  <g
     transform="matrix(0.21066394,0,0,0.21066394,54.597655,50.819607)"
     style="fill:#004553;fill-opacity:0.98431373"
     id="g215766" />
  <g
     transform="matrix(0.21066394,0,0,0.21066394,54.597655,50.819607)"
     style="fill:#004553;fill-opacity:0.98431373"
     id="g215768" />
  <g
     transform="matrix(0.21066394,0,0,0.21066394,54.597655,50.819607)"
     style="fill:#004553;fill-opacity:0.98431373"
     id="g215770" />
  <g
     transform="matrix(0.21066394,0,0,0.21066394,54.597655,50.819607)"
     style="fill:#004553;fill-opacity:0.98431373"
     id="g215772" />
  <g
     transform="matrix(0.21066394,0,0,0.21066394,54.597655,50.819607)"
     style="fill:#004553;fill-opacity:0.98431373"
     id="g215774" />
  <g
     transform="matrix(0.21066394,0,0,0.21066394,54.597655,50.819607)"
     style="fill:#004553;fill-opacity:0.98431373"
     id="g215776" />
  <g
     transform="matrix(0.21066394,0,0,0.21066394,54.597655,50.819607)"
     style="fill:#004553;fill-opacity:0.98431373"
     id="g215778" />
  <g
     transform="matrix(0.21066394,0,0,0.21066394,54.597655,50.819607)"
     style="fill:#004553;fill-opacity:0.98431373"
     id="g215780" />
  <g
     transform="matrix(0.21066394,0,0,0.21066394,54.597655,50.819607)"
     style="fill:#004553;fill-opacity:0.98431373"
     id="g215782" />
</svg>
