<?xml version="1.0" encoding="UTF-8" standalone="no"?>
<svg
   xmlns:dc="http://purl.org/dc/elements/1.1/"
   xmlns:cc="http://creativecommons.org/ns#"
   xmlns:rdf="http://www.w3.org/1999/02/22-rdf-syntax-ns#"
   xmlns:svg="http://www.w3.org/2000/svg"
   xmlns="http://www.w3.org/2000/svg"
   width="305.36429mm"
   height="264.45325mm"
   viewBox="0 0 305.36429 264.45325"
   version="1.1"
   id="svg524030">
  <defs
     id="defs524024">
    <clipPath
       clipPathUnits="userSpaceOnUse"
       id="clipPath523980">
      <path
         id="path523982"
         style="opacity:1;fill:#ffdfbb;fill-opacity:1;fill-rule:evenodd;stroke:none;stroke-width:0.73808849;stroke-linecap:round;stroke-linejoin:miter;stroke-miterlimit:4;stroke-dasharray:none;stroke-dashoffset:0;stroke-opacity:1"
         d="m -102.97803,894.16461 a 62.651132,62.651132 0 0 1 -59.46368,62.56999 62.651132,62.651132 0 0 1 -65.51426,-56.20334 62.651132,62.651132 0 0 1 52.79745,-68.28883 62.651132,62.651132 0 0 1 70.88652,49.25481" />
    </clipPath>
  </defs>
  <metadata
     id="metadata524027">
    <rdf:RDF>
      <cc:Work
         rdf:about="">
        <dc:format>image/svg+xml</dc:format>
        <dc:type
           rdf:resource="http://purl.org/dc/dcmitype/StillImage" />
        <dc:title></dc:title>
      </cc:Work>
    </rdf:RDF>
  </metadata>
  <g
     transform="matrix(0.21066394,0,0,0.21066394,116.56091,74.286653)"
     style="fill:#004553;fill-opacity:0.98431373"
     id="g215754" />
  <g
     transform="matrix(0.21066394,0,0,0.21066394,116.56091,74.286653)"
     style="fill:#004553;fill-opacity:0.98431373"
     id="g215756" />
  <g
     transform="matrix(0.21066394,0,0,0.21066394,116.56091,74.286653)"
     style="fill:#004553;fill-opacity:0.98431373"
     id="g215758" />
  <g
     transform="matrix(0.21066394,0,0,0.21066394,116.56091,74.286653)"
     style="fill:#004553;fill-opacity:0.98431373"
     id="g215760" />
  <g
     transform="matrix(0.21066394,0,0,0.21066394,116.56091,74.286653)"
     style="fill:#004553;fill-opacity:0.98431373"
     id="g215762" />
  <g
     transform="matrix(0.21066394,0,0,0.21066394,116.56091,74.286653)"
     style="fill:#004553;fill-opacity:0.98431373"
     id="g215764" />
  <g
     transform="matrix(0.21066394,0,0,0.21066394,116.56091,74.286653)"
     style="fill:#004553;fill-opacity:0.98431373"
     id="g215766" />
  <g
     transform="matrix(0.21066394,0,0,0.21066394,116.56091,74.286653)"
     style="fill:#004553;fill-opacity:0.98431373"
     id="g215768" />
  <g
     transform="matrix(0.21066394,0,0,0.21066394,116.56091,74.286653)"
     style="fill:#004553;fill-opacity:0.98431373"
     id="g215770" />
  <g
     transform="matrix(0.21066394,0,0,0.21066394,116.56091,74.286653)"
     style="fill:#004553;fill-opacity:0.98431373"
     id="g215772" />
  <g
     transform="matrix(0.21066394,0,0,0.21066394,116.56091,74.286653)"
     style="fill:#004553;fill-opacity:0.98431373"
     id="g215774" />
  <g
     transform="matrix(0.21066394,0,0,0.21066394,116.56091,74.286653)"
     style="fill:#004553;fill-opacity:0.98431373"
     id="g215776" />
  <g
     transform="matrix(0.21066394,0,0,0.21066394,116.56091,74.286653)"
     style="fill:#004553;fill-opacity:0.98431373"
     id="g215778" />
  <g
     transform="matrix(0.21066394,0,0,0.21066394,116.56091,74.286653)"
     style="fill:#004553;fill-opacity:0.98431373"
     id="g215780" />
  <g
     transform="matrix(0.21066394,0,0,0.21066394,116.56091,74.286653)"
     style="fill:#004553;fill-opacity:0.98431373"
     id="g215782" />
  <g
     id="g1321"
     transform="translate(-44.219083,-37.355846)">
    <path
       d="M 196.90123,301.80908 44.219083,37.355854 l 305.364287,-8e-6 z"
       id="path858-4-8"
       style="opacity:1;fill:#ffefce;fill-opacity:1;fill-rule:evenodd;stroke:none;stroke-width:0.31054527;stroke-linecap:butt;stroke-linejoin:miter;stroke-miterlimit:4;stroke-dasharray:none;stroke-dashoffset:0;stroke-opacity:1;paint-order:markers stroke fill" />
    <g
       transform="translate(-127.14471,-25.141386)"
       id="g1265">
      <path
         d="m 351.39332,81.067768 c 0,-0.0031 -0.002,-0.0031 -0.002,-0.0031 0.009,0.0061 0.0171,0.01704 0.0341,0.01704 -0.009,-0.006 -0.0171,-0.0085 -0.0256,-0.01704"
         style="fill:#ffefce;fill-opacity:1;fill-rule:nonzero;stroke:none;stroke-width:0.30056897"
         id="path1478-1-0-5-6-7-8" />
      <path
         d="m 373.77067,107.71614 c 0.004,0.003 0.004,0.008 0.006,0.008 -0.0341,-0.0596 -0.0597,-0.1295 -0.0869,-0.19511 0.0256,0.0597 0.0512,0.12355 0.0852,0.18319"
         style="fill:#ffefce;fill-opacity:1;fill-rule:nonzero;stroke:none;stroke-width:0.30056897"
         id="path1482-4-5-1-1-5-2" />
      <path
         d="m 373.80681,107.79129 c -0.009,-0.017 -0.0171,-0.0426 -0.0341,-0.0597 0.009,0.017 0.0171,0.0426 0.0341,0.0597"
         style="fill:#ffefce;fill-opacity:1;fill-rule:nonzero;stroke:none;stroke-width:0.30056897"
         id="path1484-4-8-5-1-3-8" />
      <path
         d="m 374.07731,108.38343 c -0.009,-0.017 -0.017,-0.0341 -0.0256,-0.0511 0.009,0.017 0.0171,0.0341 0.0256,0.0511"
         style="fill:#ffefce;fill-opacity:1;fill-rule:nonzero;stroke:none;stroke-width:0.30056897"
         id="path1486-0-2-7-1-3-8" />
      <path
         d="m 373.59636,107.33445 c 0.004,0.006 0.004,0.008 0.006,0.008 -0.002,-0.003 -0.002,-0.008 -0.006,-0.008"
         style="fill:#ffefce;fill-opacity:1;fill-rule:nonzero;stroke:none;stroke-width:0.30056897"
         id="path1488-0-8-1-4-1-1" />
      <path
         d="m 323.24261,165.62268 c 2.74116,1.51784 7.96804,2.3264 6.09551,-2.26932 -0.79322,-1.95365 -5.80702,-1.54495 -7.35495,-3.24913 -0.0767,-0.11417 -0.14995,-0.23175 -0.213,-0.35188 -0.0426,-0.11417 -0.0682,-0.22833 -0.0929,-0.34591 -0.0682,-1.13913 3.4836,-25.99915 -1.62307,-21.5959 -1.13019,0.97385 0.25219,14.29207 0.017,16.6546 -0.47798,4.78802 -2.3023,8.13939 3.17406,11.15711"
         style="fill:#ffefce;fill-opacity:1;fill-rule:nonzero;stroke:none;stroke-width:0.30056897"
         id="path490-1-6-0-7-7-9-5" />
      <path
         d="m 319.71087,173.77705 c 1.29547,0.40301 2.61796,0.58959 3.97052,0.56489 0.0903,0.017 0.17722,0.0426 0.26753,0.0681 7.90491,3.91948 21.80029,-6.24283 3.17398,-1.64412 -0.0766,0.004 -0.15591,0.004 -0.23175,0 -1.26838,-0.26157 -10.03604,0.17722 -7.18062,1.00691"
         style="fill:#ffefce;fill-opacity:1;fill-rule:nonzero;stroke:none;stroke-width:0.30056897"
         id="path492-7-9-3-2-3-0-3" />
      <path
         d="m 330.91314,178.55911 c -1.05803,0 -2.36552,0.70035 -3.38443,0.91378 -0.18915,0.009 -0.38169,0.0171 -0.57425,0.006 -2.7202,-0.58276 -4.46051,1.89964 -1.26242,2.69917 2.89146,0.7242 7.61344,-3.61891 5.22093,-3.61891"
         style="fill:#ffefce;fill-opacity:1;fill-rule:nonzero;stroke:none;stroke-width:0.30056897"
         id="path494-3-6-4-8-7-3-3" />
      <path
         d="m 297.45373,135.26518 c 0.98288,1.93269 7.50524,1.84851 8.99004,1.8756 1.77336,0.55636 8.79168,2.47065 9.32964,-0.57084 0.55295,-0.82985 -0.51717,-1.89963 -1.23533,-2.10701 -0.0852,-0.11418 -0.18659,-0.213 -0.30672,-0.2948 -0.33995,-1.83948 -5.04354,-1.47278 -6.54639,-1.65016 -0.68501,-0.19852 -1.36159,-0.37915 -2.08299,-0.36381 -0.43537,-0.11757 -0.87765,-0.0963 -1.32248,0.0596 -0.49928,-0.1295 -1.00085,-0.0596 -1.50882,0.21641 -0.71228,-1.63509 -4.46647,-0.0682 -5.39525,0.18659 -0.97989,-0.29139 -1.79739,-0.1082 -2.45267,0.55295 -2.45863,0.30076 -0.63389,3.55875 2.5308,2.09798"
         style="fill:#ffefce;fill-opacity:1;fill-rule:nonzero;stroke:none;stroke-width:0.30056897"
         id="path496-6-6-2-4-3-1-4" />
      <path
         d="m 338.23792,136.62677 c 0.009,0 0.0171,0 0.0256,-0.003 -0.009,0.003 -0.0171,0.003 -0.0256,0.006 z m -2.63594,0.85362 c 0.87467,-0.28286 1.74934,-0.56488 2.62699,-0.8503 0.1866,-0.0256 0.37574,-0.0511 0.56232,-0.0682 1.10609,0.71569 4.07566,-0.39959 5.24488,-0.81452 1.49689,-0.31268 4.76407,-0.48394 6.06254,-1.578 0.82643,0.19852 2.62391,0.6552 3.42949,0.0988 0.37233,0.0426 0.7455,0.0767 1.12107,0.10821 1.35554,0.49586 2.44066,-2.22119 -0.78726,-2.38051 -0.50183,-0.2769 -1.02487,-0.4899 -1.57195,-0.64327 -0.57084,-0.21641 -1.14518,-0.2769 -1.72224,-0.18062 -1.09407,-0.33058 -2.66909,-0.14143 -3.76314,-0.017 -1.80643,-1.34353 -7.50218,0.54699 -8.99003,1.5089 -1.12108,0.2948 -2.72618,0.67905 -3.0087,2.01977 -0.17126,0.31865 -0.24623,0.6586 -0.22833,1.02198 -0.63987,0.99787 -0.29736,1.59001 1.02496,1.77635"
         style="fill:#ffefce;fill-opacity:1;fill-rule:nonzero;stroke:none;stroke-width:0.30056897"
         id="path498-5-6-7-1-2-5-7" />
      <path
         d="m 300.85622,142.94175 c 0.18915,-0.24623 0.42089,-0.44219 0.69098,-0.58277 0.11161,-0.0341 0.22578,-0.0682 0.33995,-0.0903 0.45412,-0.017 0.90474,-0.0256 1.35861,-0.0256 -1.82747,2.81034 1.58098,5.50345 4.28005,5.21488 1.28645,0.58873 2.61191,0.0929 3.31831,-1.13317 0.94079,-0.39959 1.42464,-1.09108 1.45174,-2.07694 0.93473,0.80515 1.8906,3.44151 3.3333,2.81631 2.19417,0.20448 -4.86921,-7.70955 -9.31166,-7.56224 -0.74806,-0.0682 -1.47576,-0.0256 -2.20917,0.22493 0.003,0.003 0.003,0.006 0.003,0.008 -6.55542,-1.03698 -7.15055,7.55636 -4.96243,5.83105 0.63986,-0.82645 1.09705,-1.77337 1.70725,-2.62393"
         style="fill:#ffefce;fill-opacity:1;fill-rule:nonzero;stroke:none;stroke-width:0.30056897"
         id="path500-5-5-1-4-4-9-8" />
      <path
         d="m 354.18612,141.65531 c -3.57375,-4.18991 -9.86163,-3.57681 -14.58959,-1.27741 -0.97087,-0.26413 -2.04686,0.90168 -2.54886,1.62307 -1.00989,0.8716 -1.91156,1.81537 -2.07992,3.17696 0.0341,0.24367 0.0597,0.64923 0.20448,0.8503 0.59214,1.51785 1.97478,0.40556 2.58192,-0.3604 0.44815,-0.39959 0.87467,-0.82048 1.28337,-1.26241 0.27947,-0.21045 0.57427,-0.39704 0.88371,-0.55892 0.0171,0.15592 0.0426,0.31269 0.0682,0.46605 0.38511,0.9528 0.95578,1.76135 1.8515,2.30536 1.02197,0.44219 1.91462,0.53506 3.01772,0.37573 0.33995,0.0597 0.68501,0.0426 1.02496,-0.0511 2.03784,-0.28286 3.40846,-2.53387 3.2251,-4.44543 1.03697,0.17466 2.82534,1.55994 3.83522,1.21726 1.74329,2.06493 2.92759,-0.0963 1.24436,-2.06185"
         style="fill:#ffefce;fill-opacity:1;fill-rule:nonzero;stroke:none;stroke-width:0.30056897"
         id="path502-5-7-8-2-0-4-1" />
      <path
         d="m 359.98778,116.68752 c -0.009,-0.0988 -0.0256,-0.19852 -0.0426,-0.29735 0.0171,0.13802 0.0341,0.2769 0.0597,0.41492 -0.006,-0.0426 -0.009,-0.0767 -0.0171,-0.11757"
         style="fill:#ffefce;fill-opacity:1;fill-rule:nonzero;stroke:none;stroke-width:0.30056897"
         id="path504-5-1-1-9-6-2-7" />
      <path
         id="path215748-1-0-7"
         d="m 307.97726,132.27766 c -5.11274,0 -10.20718,1.75361 -12.82745,5.73534 l -5.5778,-0.79236 c -0.84179,-0.11958 -1.59095,0.0506 -1.59095,0.90083 0,0.85024 0.69219,1.47338 1.53983,1.53983 l 4.61089,0.36147 c -0.55665,1.54624 -0.79879,2.8501 -0.79879,4.58548 0,8.07485 6.56941,12.33085 14.64427,12.33085 8.07485,0 14.64427,-4.256 14.64427,-12.33085 0,-8.07485 -6.56942,-12.33059 -14.64427,-12.33059 z m 0,21.58178 c -6.35889,-0.47601 -11.08532,-2.46805 -11.56462,-6.93777 -0.87075,-8.12009 5.18793,-11.56461 11.56462,-11.56461 6.37668,0 11.56461,2.87451 11.56461,9.25119 0,6.37668 -0.63826,10.06911 -11.56461,9.25119 z"
         style="fill:#ffefce;fill-opacity:1;stroke-width:0.25663784" />
      <path
         id="path215750-1-0-2"
         d="m 361.69926,136.94312 -6.32755,1.08442 c -0.74323,-1.1328 -2.2575,-3.61371 -3.29894,-4.51195 -2.65492,-2.29023 -6.05024,-2.39464 -9.56053,-2.39464 -5.24362,0 -9.85002,1.61523 -12.43718,5.76892 -1.12305,-1.43589 -2.87587,-2.51343 -4.83018,-2.36158 -4.60546,0.35784 -5.514,1.41617 -6.41044,1.9066 -0.74604,0.40831 -1.01988,1.34401 -0.61157,2.09032 0.40806,0.74579 1.34376,1.01936 2.09006,0.61157 0.45092,-0.24689 2.16349,-1.68194 3.75619,-1.5797 1.67906,0.10778 4.22718,1.42002 4.22718,3.10254 0,0.10471 0.0108,0.20711 0.0305,0.30617 -0.2995,1.16514 -0.45887,2.38571 -0.45887,3.64297 0,8.07486 6.56942,12.33085 14.64427,12.33085 6.06256,0 10.52276,-0.99107 12.65978,-6.66226 0.19132,-1.19345 0.58466,-2.15397 -0.21143,-2.45346 0,0 -1.82865,0.17417 -1.62234,2.01853 -1.68739,4.47859 -6.07922,4.64534 -10.82601,4.01779 -6.01521,-0.79524 -11.74535,-0.12732 -11.56461,-9.25119 0.12629,-6.37543 5.18793,-10.4079 11.56461,-10.4079 5.73021,0 11.02011,2.5607 11.9091,8.21084 0.13217,0.83998 0.91979,1.41356 1.76054,1.28165 0.83997,-0.13217 0.92818,-0.5369 0.79627,-1.37688 -0.14295,-0.90901 -0.37444,-2.15845 -0.68266,-3.01639 l 5.44017,-0.32532 c 0.84873,-0.0507 1.50368,-0.003 1.50368,-0.85303 0,-0.85025 -0.70181,-1.32253 -1.54008,-1.17887 z"
         style="fill:#ffefce;fill-opacity:1;stroke-width:0.25663784" />
    </g>
    <path
       id="path1478-1-0-5-6-7"
       style="fill:#002d3b;fill-opacity:1;fill-rule:nonzero;stroke:none;stroke-width:0.30056897"
       d="m 224.24836,55.926378 c 0,-0.003 -0.002,-0.003 -0.002,-0.003 0.009,0.0061 0.0171,0.01704 0.0341,0.01704 -0.009,-0.006 -0.0171,-0.0085 -0.0256,-0.01704" />
    <path
       id="path1482-4-5-1-1-5"
       style="fill:#002d3b;fill-opacity:1;fill-rule:nonzero;stroke:none;stroke-width:0.30056897"
       d="m 246.62571,82.574755 c 0.004,0.003 0.004,0.0085 0.006,0.0085 -0.0341,-0.05964 -0.0597,-0.129504 -0.0869,-0.195109 0.0256,0.05965 0.0512,0.123541 0.0852,0.183181" />
    <path
       id="path1484-4-8-5-1-3"
       style="fill:#002d3b;fill-opacity:1;fill-rule:nonzero;stroke:none;stroke-width:0.30056897"
       d="m 246.66185,82.649902 c -0.009,-0.01704 -0.0171,-0.0426 -0.0341,-0.05965 0.009,0.01704 0.0171,0.0426 0.0341,0.05965" />
    <path
       id="path1486-0-2-7-1-3"
       style="fill:#002d3b;fill-opacity:1;fill-rule:nonzero;stroke:none;stroke-width:0.30056897"
       d="m 246.93235,83.242046 c -0.009,-0.01704 -0.017,-0.03407 -0.0256,-0.05112 0.009,0.01704 0.0171,0.03407 0.0256,0.05112" />
    <path
       id="path1488-0-8-1-4-1"
       style="fill:#002d3b;fill-opacity:1;fill-rule:nonzero;stroke:none;stroke-width:0.30056897"
       d="m 246.4514,82.193056 c 0.004,0.0061 0.004,0.0085 0.006,0.0085 -0.002,-0.0029 -0.002,-0.0085 -0.006,-0.0085" />
    <path
       id="path1506-1-5-7-7-3"
       style="fill:#002d3b;fill-opacity:1;fill-rule:nonzero;stroke:none;stroke-width:0.30056897"
       d="m 222.433,194.38944 c -3.03877,14.89316 -22.39542,14.64973 -33.37225,10.33961 -17.54119,-6.88609 -13.72395,-29.76843 -13.26105,-45.58132 8.14544,5.9182 14.89018,14.274 26.03527,12.7622 9.67828,-1.31055 17.53822,-9.64233 20.88353,-18.45795 -0.97682,7.76067 -2.19417,15.53642 -2.93959,23.3241 -0.2377,2.47669 -1.00085,5.40428 -0.41748,7.87493 0.85967,3.6609 3.93746,5.50344 3.07182,9.73843 z m -59.51274,-64.44202 c -2.52177,-2.04379 -4.40027,-4.53557 -5.05853,-7.75769 1.14816,1.64719 3.3874,1.02795 3.88336,-0.47457 0.78725,3.08384 1.67717,6.14357 2.45863,9.23047 -0.42685,-0.33058 -0.86265,-0.6586 -1.28346,-0.99795 z m 0.99795,6.02045 c 0.0256,0.017 0.0511,0.0341 0.0682,0.0511 -0.0256,-0.017 -0.0511,-0.0341 -0.0682,-0.0511 z m -11.061,-41.41842 c 0.37914,-9.990883 4.65281,-20.414672 12.75922,-26.624435 0.003,0.117572 0.0426,0.219818 0.0988,0.318651 -0.14995,1.112124 -0.14995,2.230211 -0.008,3.330322 -6.81392,5.800972 -10.7213,14.189827 -11.82142,23.026583 -0.29138,-0.03409 -0.73954,-0.09287 -1.02794,-0.05112 z M 172.9022,61.318557 c 6.79287,-8.698475 17.7426,-10.89861 28.1393,-11.610974 11.93857,2.69004 25.76775,10.372583 25.99915,24.000426 -6.06544,-19.92775 -40.95246,-25.350004 -55.17245,-10.64318 0.31865,-0.595552 0.64667,-1.187185 1.034,-1.746272 z m 36.68748,-11.451648 c 5.33202,0.943768 10.21632,2.918463 14.65571,6.056402 -0.009,-0.0085 -0.0171,-0.01704 -0.0256,-0.01704 0.0597,0.0426 0.12011,0.09031 0.18318,0.13206 -0.0426,-0.03407 -0.0869,-0.05965 -0.1261,-0.09031 5.40727,4.129847 8.10633,10.005964 9.98194,16.444151 -2.54886,2.296329 -2.29641,11.048905 -5.10368,14.448326 5.50336,-18.292578 -4.18693,-30.101984 -20.49579,-37.10224 0.30928,0.0426 0.61941,0.07668 0.93175,0.13206 z m 33.70878,35.385958 c 1.049,3.216068 2.44663,6.363039 2.47065,9.840589 -0.002,0.01704 -0.006,0.03407 -0.009,0.05112 -0.0171,0.0426 -0.0426,0.0852 -0.0681,0.123541 -0.0512,0.05112 -0.0988,0.108203 -0.14997,0.159325 -0.41492,0.258157 -0.86265,0.450711 -1.28337,0.690977 0.27946,-5.665757 -2.35052,-11.977676 -4.21403,-17.270682 1.27146,2.031865 2.30238,4.204993 3.25518,6.40513 z m -1.81247,31.685953 c -0.82389,5.30808 -4.46042,10.52594 -8.01312,14.45735 1.10002,-3.51061 2.31738,-6.98517 3.62784,-10.42072 -0.0341,0.0903 -0.0681,0.17722 -0.10477,0.26753 0.0766,-0.19511 0.15591,-0.39107 0.22834,-0.58873 -0.0341,0.0869 -0.0597,0.17466 -0.0962,0.25816 0.68842,-1.80038 1.47575,-3.55568 2.35647,-5.26898 0.61942,0.17125 1.19929,0.003 1.7433,-0.50525 0.0851,0.26157 0.18318,0.51717 0.24367,0.7847 0.0341,0.34251 0.0341,0.6765 0.0171,1.01594 z m -80.92817,-13.00563 c 0.43878,-5.494415 1.47584,-10.522872 3.7,-15.584472 -0.71568,5.41024 -2.44057,10.32751 -3.7,15.584472 z m 81.2498,-6.729741 c 0.10818,-0.91974 -2.05589,6.504301 -1.72225,7.099431 -1.06705,2.3264 -2.13708,4.65886 -3.18905,6.99429 -0.15593,0.13206 -0.32717,0.25816 -0.47202,0.403 2.25433,-7.77873 0.75148,-15.274943 -1.51785,-22.834199 1.75531,-2.440659 2.84639,-5.15481 3.27018,-8.136407 1.79143,5.115702 4.17193,10.961745 3.63091,16.474141 z m -7.30979,17.496121 c -0.0928,0.18063 -0.18658,0.36381 -0.26753,0.5504 0.017,-0.18318 0.0341,-0.36977 0.0426,-0.55295 0.0767,0.009 0.1474,0.006 0.22237,0.003 z m -2.54886,-21.764161 c -0.009,-0.07668 -0.0768,-0.123541 -0.1261,-0.180625 0.34848,-0.360399 0.71825,-0.706314 1.03698,-1.09108 1.37957,4.941382 2.63295,10.144246 1.80336,15.293006 0.006,-3.85329 -1.11511,-6.80787 -2.10395,-10.441766 -0.19255,-1.196303 -0.37573,-2.389538 -0.61003,-3.579791 z M 177.89461,78.77259 c 8.62333,-2.801311 16.78078,-7.586349 25.79484,-3.330322 6.28192,2.966602 11.19622,9.687313 9.06518,16.834881 2.04993,-22.744057 -30.61592,-4.171936 -37.34566,-11.716197 -0.23175,-0.330578 -0.39363,-0.676493 -0.57425,-1.030927 1.03093,-0.204482 2.05589,-0.436228 3.05972,-0.757435 z m -6.12856,-0.982874 c -0.0256,0.0426 -0.0596,0.0852 -0.0767,0.123541 0.017,-0.03409 0.0341,-0.0852 0.0597,-0.12013 0.006,-0.0029 0.017,-0.0029 0.017,-0.0029 z m 47.30049,7.333902 c -0.31268,2.413564 -1.38561,5.079576 -2.86435,7.063389 1.4277,-8.821761 -4.08179,-16.771747 -12.18812,-20.038937 -10.76034,-4.337224 -18.79459,2.037829 -29.02292,4.499532 9.37173,-5.02556 14.8601,-11.556957 26.79875,-9.867684 9.20645,1.304423 18.06416,8.139388 17.27664,18.3437 z m 3.46861,-13.895289 c 3.28823,7.646418 4.18992,15.226804 -2.01985,21.466643 -0.55636,0.05965 -1.06697,0.21641 -1.53285,0.477977 8.03715,-14.322144 -4.40334,-27.778564 -18.53309,-29.482832 -12.84937,-1.553975 -18.72242,6.672659 -29.40769,11.265315 -0.57425,-0.838375 -0.97981,-1.755304 -1.22033,-2.744143 2.82236,-2.428645 3.32734,-6.528414 7.00631,-8.920933 3.71798,-2.413564 8.76459,-3.4836 13.13785,-4.069694 11.1601,-1.496806 27.06024,0.550395 32.56965,12.007753 z m -61.99233,9.726421 c 1.42464,-2.629974 3.48658,-5.034592 5.72881,-7.003323 3.44756,9.600238 -8.14544,20.817415 -8.66542,30.697113 0.47201,-9.010993 -1.01287,-16.401979 2.93661,-23.69379 z m -0.41493,33.54648 c -0.36977,-1.29548 -0.72761,-2.60297 -1.09108,-3.90441 0.31525,-0.0256 0.58278,-0.15336 0.79067,-0.35443 -0.0341,1.69225 0.15591,3.36636 0.55891,5.02854 -0.008,-0.003 -0.0256,-0.003 -0.0341,-0.003 -0.0767,-0.2556 -0.15336,-0.5112 -0.22578,-0.76681 z m 69.92733,-7.15055 c 0.14739,6.72071 0.0341,13.63679 -0.24027,20.34549 -1.14518,3.82627 -3.09287,8.99906 -3.198,13.09584 -5.66576,7.54128 -10.90466,17.27367 -17.69456,23.81103 -5.5124,1.38562 -11.0639,2.55789 -16.7116,0.95279 -6.41416,-3.01772 -16.36295,-11.7973 -19.63014,-18.08818 -3.95851,-10.80548 -7.31286,-28.24145 -6.66363,-39.65408 0.29735,-5.15481 7.38494,-26.134444 2.60595,-28.472947 0.14143,-0.279457 0.2769,-0.556359 0.41748,-0.835817 1.20823,0.589588 2.11,0.417482 2.71415,-0.513761 -0.11417,0.291387 -0.11757,0.580217 -0.006,0.865639 -2.46468,2.230212 1.99276,5.815967 3.66994,6.771833 5.9994,3.417397 13.16196,-0.682458 19.1583,-1.650167 7.77566,-1.259351 20.82943,2.852433 14.28304,12.912414 -0.18063,-0.0426 -0.35784,-0.104792 -0.52313,-0.192554 0.53165,-0.468603 0.80514,-1.039959 0.82048,-1.722331 -0.28883,-1.827383 -3.43554,-3.480532 -3.7271,-0.408963 -1.76732,1.695152 -1.2804,6.164604 1.77941,6.050434 6.25484,2.61796 15.4312,-0.18062 20.5619,-4.210952 0.63134,2.485644 1.64412,4.923322 2.23021,7.408962 0.1261,1.16921 0.13206,2.35946 0.15336,3.53472 z m -0.64668,25.71364 c 0.006,-0.0682 0.009,-0.13207 0.0171,-0.19511 -0.006,0.0596 -0.0171,0.13206 -0.0171,0.19511 z M 101.40829,260.39139 c 0,-0.006 0,-0.009 0.003,-0.0171 -0.002,0.007 -0.002,0.009 -0.003,0.0171 z m 154.09456,-60.05792 c -9.8854,-5.97291 -19.84727,-11.8328 -29.69514,-17.83156 -0.8987,-13.58568 -0.67308,-34.84792 7.3339,-46.58516 4.96838,-7.28278 18.83368,-13.27614 11.45174,-24.40317 2.96957,-3.77217 1.83044,-6.71475 1.98372,-10.92869 0.0256,-0.11161 0.0512,-0.22237 0.0928,-0.34591 5.54546,-3.669934 3.11988,-10.730341 0.73358,-15.945217 0.0766,0.161881 0.15337,0.333986 0.22834,0.499276 -0.22578,-0.523133 -0.46008,-1.03996 -0.70035,-1.550907 0.0512,0.12013 0.10817,0.243673 0.16187,0.366363 -0.0681,-0.16529 -0.14739,-0.328023 -0.22236,-0.489904 0.009,0.02556 0.0256,0.05112 0.0341,0.06816 l -0.0256,-0.05112 c 0.009,0.02556 0.0171,0.0426 0.0341,0.06816 -0.0766,-0.159326 -0.14995,-0.324614 -0.22237,-0.489904 0.0512,0.117572 0.10477,0.23771 0.15932,0.357842 -0.12949,-0.270937 -0.24622,-0.544432 -0.37232,-0.817925 0.017,0.0426 0.0426,0.09287 0.0681,0.138025 -0.0256,-0.05964 -0.0597,-0.12013 -0.10477,-0.22493 0.0171,0.0426 0.0341,0.0852 0.0512,0.123541 C 245.44673,79.970003 240.00046,68.476266 236.44776,71.394814 229.83525,54.364568 216.38173,46.2763 198.2334,46.925529 c -0.0682,-0.003 -5.84008,-0.709722 -6.63654,0.549544 -10.21334,1.28048 -20.77839,6.053507 -24.61966,16.242822 -7.20159,2.70512 -13.14382,12.254154 -15.41314,19.212319 -1.00392,3.074806 -5.0766,16.047372 0.81111,15.527392 0.24623,1.283463 0.46605,2.569904 0.66116,3.862314 -0.017,-0.11757 -0.0341,-0.23771 -0.0511,-0.3604 0.78469,5.00145 1.80344,9.89171 2.97265,14.81205 -8.46707,6.41714 4.56863,17.33075 9.87663,20.59197 1.05205,4.14484 1.68322,8.68339 3.48062,12.58481 -1.08504,4.65878 2.2573,12.55176 2.72318,17.25569 0.58618,5.99028 0.42685,12.16998 -0.37233,18.14228 -7.28883,-0.76339 -13.14995,6.65759 -17.97103,11.05795 -4.07187,3.71779 -8.28881,6.31631 -12.71751,8.54747 l 2.77411,4.82078 c 0.61602,-0.28683 1.22004,-0.58813 1.8098,-0.90673 9.20645,-4.96839 17.46912,-11.69216 24.15677,-19.73835 3.28824,32.04363 67.79032,31.07882 56.24845,-0.1295 8.94906,5.31476 17.89807,10.62946 26.84835,15.94295" />
    <path
       id="path490-1-6-0-7-7-9"
       style="fill:#002d3b;fill-opacity:1;fill-rule:nonzero;stroke:none;stroke-width:0.30056897"
       d="m 196.09765,140.48129 c 2.74116,1.51784 7.96804,2.3264 6.09551,-2.26932 -0.79322,-1.95365 -5.80702,-1.54495 -7.35495,-3.24913 -0.0767,-0.11417 -0.14995,-0.23174 -0.213,-0.35188 -0.0426,-0.11417 -0.0682,-0.22833 -0.0929,-0.34591 -0.0682,-1.13913 3.4836,-25.99915 -1.62307,-21.59589 -1.13019,0.97384 0.25219,14.29206 0.017,16.65459 -0.47798,4.78802 -2.3023,8.13939 3.17406,11.15711" />
    <path
       id="path492-7-9-3-2-3-0"
       style="fill:#002d3b;fill-opacity:1;fill-rule:nonzero;stroke:none;stroke-width:0.30056897"
       d="m 192.56591,148.63566 c 1.29547,0.40301 2.61796,0.58959 3.97052,0.56489 0.0903,0.017 0.17722,0.0426 0.26753,0.0681 7.90491,3.91948 21.80029,-6.24282 3.17398,-1.64412 -0.0766,0.004 -0.15591,0.004 -0.23175,0 -1.26838,-0.26157 -10.03604,0.17722 -7.18062,1.00691" />
    <path
       id="path494-3-6-4-8-7-3"
       style="fill:#002d3b;fill-opacity:1;fill-rule:nonzero;stroke:none;stroke-width:0.30056897"
       d="m 203.76818,153.41772 c -1.05803,0 -2.36552,0.70035 -3.38443,0.91378 -0.18915,0.009 -0.38169,0.0171 -0.57425,0.006 -2.7202,-0.58276 -4.46051,1.89964 -1.26242,2.69917 2.89146,0.7242 7.61344,-3.61891 5.22093,-3.61891" />
    <path
       id="path496-6-6-2-4-3-1"
       style="fill:#002d3b;fill-opacity:1;fill-rule:nonzero;stroke:none;stroke-width:0.30056897"
       d="m 170.30877,110.12379 c 0.98288,1.93269 7.50524,1.84851 8.99004,1.8756 1.77336,0.55637 8.79168,2.47065 9.32964,-0.57084 0.55295,-0.82985 -0.51717,-1.89963 -1.23533,-2.10701 -0.0852,-0.11417 -0.18659,-0.213 -0.30672,-0.2948 -0.33995,-1.83948 -5.04354,-1.47277 -6.54639,-1.65016 -0.68501,-0.19852 -1.36159,-0.37915 -2.08299,-0.36381 -0.43537,-0.11757 -0.87765,-0.0963 -1.32248,0.0596 -0.49928,-0.1295 -1.00085,-0.0596 -1.50882,0.21641 -0.71228,-1.63508 -4.46647,-0.0682 -5.39524,0.18659 -0.9799,-0.29138 -1.7974,-0.1082 -2.45268,0.55295 -2.45863,0.30076 -0.63389,3.55875 2.5308,2.09798" />
    <path
       id="path498-5-6-7-1-2-5"
       style="fill:#002d3b;fill-opacity:1;fill-rule:nonzero;stroke:none;stroke-width:0.30056897"
       d="m 211.09296,111.48538 c 0.009,0 0.0171,0 0.0256,-0.003 -0.009,0.003 -0.0171,0.003 -0.0256,0.006 z m -2.63594,0.85362 c 0.87467,-0.28286 1.74934,-0.56488 2.62699,-0.8503 0.1866,-0.0256 0.37574,-0.0511 0.56232,-0.0682 1.10609,0.71569 4.07566,-0.39959 5.24488,-0.81452 1.49689,-0.31268 4.76407,-0.48393 6.06254,-1.578 0.82643,0.19852 2.62391,0.6552 3.42949,0.0988 0.37233,0.0426 0.7455,0.0767 1.12107,0.10821 1.35554,0.49586 2.44066,-2.22118 -0.78726,-2.38051 -0.50183,-0.2769 -1.02487,-0.4899 -1.57195,-0.64326 -0.57084,-0.21641 -1.14518,-0.27691 -1.72224,-0.18063 -1.09407,-0.33058 -2.66909,-0.14143 -3.76314,-0.017 -1.80643,-1.34353 -7.50218,0.54699 -8.99003,1.5089 -1.12108,0.2948 -2.72618,0.67905 -3.0087,2.01977 -0.17126,0.31865 -0.24623,0.6586 -0.22833,1.02198 -0.63987,0.99787 -0.29736,1.59002 1.02496,1.77635" />
    <path
       id="path500-5-5-1-4-4-9"
       style="fill:#002d3b;fill-opacity:1;fill-rule:nonzero;stroke:none;stroke-width:0.30056897"
       d="m 173.71126,117.80037 c 0.18915,-0.24623 0.42089,-0.4422 0.69098,-0.58278 0.11161,-0.0341 0.22578,-0.0682 0.33995,-0.0903 0.45412,-0.017 0.90474,-0.0256 1.35861,-0.0256 -1.82747,2.81035 1.58098,5.50345 4.28005,5.21488 1.28645,0.58873 2.61192,0.0929 3.31831,-1.13317 0.94079,-0.39959 1.42464,-1.09108 1.45174,-2.07694 0.93473,0.80515 1.8906,3.44151 3.3333,2.81631 2.19417,0.20448 -4.86921,-7.70955 -9.31166,-7.56224 -0.74806,-0.0682 -1.47576,-0.0256 -2.20917,0.22493 0.003,0.003 0.003,0.006 0.003,0.009 -6.55542,-1.03697 -7.15055,7.55636 -4.96243,5.83105 0.63986,-0.82645 1.09705,-1.77337 1.70725,-2.62393" />
    <path
       id="path502-5-7-8-2-0-4"
       style="fill:#002d3b;fill-opacity:1;fill-rule:nonzero;stroke:none;stroke-width:0.30056897"
       d="m 227.04116,116.51392 c -3.57375,-4.18991 -9.86163,-3.57681 -14.58959,-1.27741 -0.97087,-0.26412 -2.04686,0.90168 -2.54886,1.62307 -1.00989,0.8716 -1.91156,1.81537 -2.07992,3.17696 0.0341,0.24368 0.0597,0.64923 0.20448,0.8503 0.59214,1.51785 1.97478,0.40556 2.58192,-0.3604 0.44815,-0.39959 0.87467,-0.82048 1.28337,-1.26241 0.27947,-0.21045 0.57427,-0.39704 0.88371,-0.55892 0.0171,0.15592 0.0426,0.31269 0.0682,0.46605 0.38511,0.9528 0.95578,1.76135 1.8515,2.30536 1.02197,0.44219 1.91462,0.53506 3.01772,0.37573 0.33995,0.0597 0.68501,0.0426 1.02496,-0.0511 2.03784,-0.28286 3.40846,-2.53386 3.2251,-4.44543 1.03697,0.17467 2.82534,1.55994 3.83522,1.21727 1.74329,2.06492 2.92759,-0.0963 1.24436,-2.06186" />
    <path
       id="path504-5-1-1-9-6-2"
       style="fill:#002d3b;fill-opacity:1;fill-rule:nonzero;stroke:none;stroke-width:0.30056897"
       d="m 232.84282,91.546127 c -0.009,-0.09884 -0.0256,-0.198517 -0.0426,-0.29735 0.0171,0.138025 0.0341,0.276902 0.0597,0.414927 -0.006,-0.0426 -0.009,-0.07668 -0.0171,-0.117572" />
    <path
       style="fill:#002d3b;fill-opacity:1;stroke-width:0.25663784"
       d="m 180.8323,107.13627 c -5.11274,0 -10.20718,1.75361 -12.82746,5.73534 l -5.57779,-0.79236 c -0.84179,-0.11958 -1.59095,0.0506 -1.59095,0.90083 0,0.85024 0.69219,1.47338 1.53983,1.53983 l 4.61089,0.36147 c -0.55665,1.54625 -0.79879,2.8501 -0.79879,4.58548 0,8.07486 6.56941,12.33085 14.64427,12.33085 8.07485,0 14.64426,-4.25599 14.64426,-12.33085 0,-8.07485 -6.56941,-12.33059 -14.64426,-12.33059 z m 0,21.58178 c -6.35889,-0.47601 -11.08532,-2.46805 -11.56462,-6.93776 -0.87075,-8.1201 5.18793,-11.56462 11.56462,-11.56462 6.37668,0 11.56461,2.87451 11.56461,9.25119 0,6.37668 -0.63826,10.06911 -11.56461,9.25119 z"
       id="path215748-1-0" />
    <path
       style="fill:#002d3b;fill-opacity:1;stroke-width:0.25663784"
       d="m 234.5543,111.80173 -6.32755,1.08442 c -0.74323,-1.1328 -2.2575,-3.61371 -3.29894,-4.51194 -2.65492,-2.29024 -6.05024,-2.39465 -9.56053,-2.39465 -5.24362,0 -9.85002,1.61524 -12.43718,5.76892 -1.12305,-1.43589 -2.87587,-2.51343 -4.83018,-2.36158 -4.60546,0.35784 -5.514,1.41617 -6.41044,1.9066 -0.74604,0.40832 -1.01988,1.34402 -0.61157,2.09032 0.40806,0.74579 1.34376,1.01937 2.09006,0.61157 0.45092,-0.24689 2.16349,-1.68194 3.75619,-1.5797 1.67906,0.10778 4.22718,1.42003 4.22718,3.10254 0,0.10471 0.0108,0.20711 0.0305,0.30617 -0.2995,1.16514 -0.45887,2.38571 -0.45887,3.64298 0,8.07485 6.56942,12.33084 14.64427,12.33084 6.06256,0 10.52276,-0.99107 12.65978,-6.66226 0.19132,-1.19345 0.58466,-2.15397 -0.21143,-2.45346 0,0 -1.82865,0.17417 -1.62234,2.01854 -1.68739,4.47858 -6.07922,4.64533 -10.82601,4.01778 -6.01521,-0.79523 -11.74535,-0.12732 -11.56461,-9.25119 0.12629,-6.37543 5.18793,-10.4079 11.56461,-10.4079 5.73021,0 11.02011,2.56071 11.9091,8.21084 0.13217,0.83998 0.91979,1.41357 1.76054,1.28165 0.83997,-0.13216 0.92818,-0.5369 0.79627,-1.37688 -0.14295,-0.90901 -0.37444,-2.15845 -0.68266,-3.01639 l 5.44017,-0.32532 c 0.84873,-0.0507 1.50368,-0.003 1.50368,-0.85303 0,-0.85024 -0.70181,-1.32253 -1.54008,-1.17887 z"
       id="path215750-1-0" />
  </g>
</svg>
