<?xml version="1.0" encoding="UTF-8" standalone="no"?>
<svg
   xmlns:dc="http://purl.org/dc/elements/1.1/"
   xmlns:cc="http://creativecommons.org/ns#"
   xmlns:rdf="http://www.w3.org/1999/02/22-rdf-syntax-ns#"
   xmlns:svg="http://www.w3.org/2000/svg"
   xmlns="http://www.w3.org/2000/svg"
   width="196.76514mm"
   height="223.18909mm"
   viewBox="0 0 196.76514 223.18909"
   version="1.1"
   id="svg524030">
  <defs
     id="defs524024">
    <clipPath
       clipPathUnits="userSpaceOnUse"
       id="clipPath523980">
      <path
         id="path523982"
         style="opacity:1;fill:#ffdfbb;fill-opacity:1;fill-rule:evenodd;stroke:none;stroke-width:0.73808849;stroke-linecap:round;stroke-linejoin:miter;stroke-miterlimit:4;stroke-dasharray:none;stroke-dashoffset:0;stroke-opacity:1"
         d="m -102.97803,894.16461 a 62.651132,62.651132 0 0 1 -59.46368,62.56999 62.651132,62.651132 0 0 1 -65.51426,-56.20334 62.651132,62.651132 0 0 1 52.79745,-68.28883 62.651132,62.651132 0 0 1 70.88652,49.25481" />
    </clipPath>
  </defs>
  <metadata
     id="metadata524027">
    <rdf:RDF>
      <cc:Work
         rdf:about="">
        <dc:format>image/svg+xml</dc:format>
        <dc:type
           rdf:resource="http://purl.org/dc/dcmitype/StillImage" />
        <dc:title></dc:title>
      </cc:Work>
    </rdf:RDF>
  </metadata>
  <g
     id="g892">
    <path
       id="path1478-1-0-5"
       style="fill:#002d3b;fill-opacity:1;fill-rule:nonzero;stroke:none;stroke-width:0.30056897"
       d="m 122.84007,9.2012045 c 0,-0.00305 -0.002,-0.00305 -0.002,-0.00305 0.009,0.00609 0.0171,0.017043 0.0341,0.017043 -0.009,-0.00597 -0.0171,-0.00853 -0.0256,-0.017043" />
    <path
       id="path1482-4-5-1"
       style="fill:#002d3b;fill-opacity:1;fill-rule:nonzero;stroke:none;stroke-width:0.30056897"
       d="m 145.21742,35.849581 c 0.004,0.003 0.004,0.0085 0.006,0.0085 -0.0341,-0.05964 -0.0597,-0.129504 -0.0869,-0.195109 0.0256,0.05965 0.0512,0.123541 0.0852,0.183181" />
    <path
       id="path1484-4-8-5"
       style="fill:#002d3b;fill-opacity:1;fill-rule:nonzero;stroke:none;stroke-width:0.30056897"
       d="m 145.25356,35.924728 c -0.009,-0.01704 -0.0171,-0.0426 -0.0341,-0.05965 0.009,0.01704 0.0171,0.0426 0.0341,0.05965" />
    <path
       id="path1486-0-2-7"
       style="fill:#002d3b;fill-opacity:1;fill-rule:nonzero;stroke:none;stroke-width:0.30056897"
       d="m 145.52406,36.516872 c -0.009,-0.01704 -0.017,-0.03407 -0.0256,-0.05112 0.009,0.01704 0.0171,0.03407 0.0256,0.05112" />
    <path
       id="path1488-0-8-1"
       style="fill:#002d3b;fill-opacity:1;fill-rule:nonzero;stroke:none;stroke-width:0.30056897"
       d="m 145.04311,35.467882 c 0.004,0.0061 0.004,0.0085 0.006,0.0085 -0.002,-0.0029 -0.002,-0.0085 -0.006,-0.0085" />
    <path
       id="path1506-1-5-7"
       style="fill:#002d3b;fill-opacity:1;fill-rule:nonzero;stroke:none;stroke-width:0.30056897"
       d="m 121.02471,147.66427 c -3.03877,14.89316 -22.395419,14.64973 -33.372245,10.33961 -17.541194,-6.88609 -13.72395,-29.76843 -13.261054,-45.58132 8.145437,5.9182 14.890175,14.274 26.035269,12.7622 9.67828,-1.31055 17.53822,-9.64233 20.88353,-18.45795 -0.97682,7.76067 -2.19417,15.53642 -2.93959,23.3241 -0.2377,2.47669 -1.00085,5.40428 -0.41748,7.87493 0.85967,3.6609 3.93746,5.50344 3.07182,9.73843 z M 61.511969,83.222248 c -2.521768,-2.043794 -4.400272,-4.535572 -5.058532,-7.75769 1.148164,1.647184 3.387407,1.027945 3.88336,-0.474568 0.787254,3.083838 1.677175,6.143564 2.458635,9.230468 -0.426855,-0.330578 -0.862657,-0.658601 -1.283463,-0.997955 z m 0.997955,6.020447 c 0.02556,0.01704 0.05112,0.03407 0.06816,0.05112 -0.02556,-0.01704 -0.05112,-0.03407 -0.06816,-0.05112 z M 51.448922,47.824276 c 0.379142,-9.990883 4.652807,-20.414672 12.759222,-26.624435 0.0029,0.117572 0.0426,0.219818 0.09883,0.318651 -0.149953,1.112124 -0.149953,2.230211 -0.0085,3.330322 -6.813922,5.800972 -10.721308,14.189827 -11.821419,23.026583 -0.291386,-0.03409 -0.739542,-0.09287 -1.027946,-0.05112 z M 71.493907,14.593383 C 78.286784,5.8949081 89.236515,3.6947725 99.633213,2.9824093 111.57178,5.6724489 125.40096,13.354992 125.63236,26.982835 119.56692,7.0550854 84.6799,1.6328308 70.459912,16.339655 70.778563,15.744103 71.106584,15.15247 71.493907,14.593383 Z M 108.18139,3.1417347 c 5.33202,0.9437679 10.21632,2.9184633 14.65571,6.0564023 -0.009,-0.00853 -0.0171,-0.017043 -0.0256,-0.017043 0.0597,0.042602 0.12011,0.090308 0.18318,0.1320602 -0.0426,-0.034074 -0.0869,-0.059645 -0.1261,-0.090308 5.40727,4.1298468 8.10633,10.0059638 9.98194,16.4441508 -2.54886,2.296329 -2.29641,11.048905 -5.10368,14.448326 5.50336,-18.292578 -4.18693,-30.101984 -20.49579,-37.10224 0.30928,0.042602 0.61941,0.076676 0.93175,0.1320601 z m 33.70878,35.3859583 c 1.049,3.216068 2.44663,6.363039 2.47065,9.840589 -0.002,0.01704 -0.006,0.03407 -0.009,0.05112 -0.0171,0.0426 -0.0426,0.0852 -0.0681,0.123541 -0.0512,0.05112 -0.0988,0.108203 -0.14997,0.159325 -0.41492,0.258157 -0.86265,0.450711 -1.28337,0.690977 0.27946,-5.665757 -2.35052,-11.977676 -4.21403,-17.270682 1.27146,2.031865 2.30238,4.204993 3.25518,6.40513 z m -1.81247,31.685949 c -0.82389,5.308085 -4.46042,10.525943 -8.01312,14.457357 1.10002,-3.510608 2.31738,-6.985175 3.62784,-10.42072 -0.0341,0.09031 -0.0681,0.177216 -0.10477,0.26753 0.0766,-0.19511 0.15591,-0.391071 0.22834,-0.588737 -0.0341,0.08691 -0.0597,0.174661 -0.0962,0.258159 0.68842,-1.800375 1.47575,-3.555679 2.35647,-5.268979 0.61942,0.171253 1.19929,0.003 1.7433,-0.505241 0.0851,0.261567 0.18318,0.517168 0.24367,0.784699 0.0341,0.342506 0.0341,0.676493 0.0171,1.015932 z M 59.149526,57.20802 c 0.438783,-5.494419 1.475846,-10.522876 3.700009,-15.584476 -0.715686,5.41024 -2.440573,10.32751 -3.700009,15.584476 z m 81.249804,-6.729745 c 0.10818,-0.91974 -2.05589,6.504303 -1.72225,7.09943 -1.06705,2.326404 -2.13708,4.658857 -3.18905,6.994292 -0.15593,0.13206 -0.32717,0.258157 -0.47202,0.402999 2.25433,-7.778735 0.75148,-15.274943 -1.51785,-22.834199 1.75531,-2.440659 2.84639,-5.15481 3.27018,-8.136407 1.79143,5.115702 4.17193,10.961745 3.63091,16.474141 z m -7.30979,17.496124 c -0.0928,0.180626 -0.18658,0.363807 -0.26753,0.550396 0.017,-0.183181 0.0341,-0.36977 0.0426,-0.552952 0.0767,0.0085 0.1474,0.0061 0.22237,0.0029 z m -2.54886,-21.764164 c -0.009,-0.07668 -0.0768,-0.123541 -0.1261,-0.180625 0.34848,-0.360399 0.71825,-0.706314 1.03698,-1.09108 1.37957,4.941382 2.63295,10.144245 1.80336,15.293005 0.006,-3.853285 -1.11511,-6.807872 -2.10395,-10.441765 -0.19255,-1.196303 -0.37573,-2.389538 -0.61003,-3.579791 z M 76.486324,32.047416 c 8.623328,-2.801311 16.780779,-7.586349 25.794836,-3.330322 6.28192,2.966602 11.19622,9.687313 9.06518,16.834881 2.04993,-22.744057 -30.615917,-4.171936 -37.34566,-11.716197 -0.231745,-0.330578 -0.393627,-0.676493 -0.574252,-1.030927 1.030928,-0.204482 2.055891,-0.436228 3.059725,-0.757435 z m -6.128568,-0.982874 c -0.02556,0.0426 -0.05964,0.0852 -0.07668,0.123541 0.01704,-0.03409 0.03407,-0.0852 0.05965,-0.12013 0.0061,-0.0029 0.01704,-0.0029 0.01704,-0.0029 z m 47.300494,7.333902 c -0.31268,2.413564 -1.38561,5.079576 -2.86435,7.063389 1.4277,-8.821761 -4.08179,-16.771747 -12.18812,-20.038937 -10.760336,-4.337224 -18.794587,2.037829 -29.022924,4.499532 9.37173,-5.02556 14.860101,-11.556957 26.798754,-9.867684 9.20645,1.304423 18.06416,8.139388 17.27664,18.3437 z m 3.46861,-13.895289 c 3.28823,7.646418 4.18992,15.226804 -2.01985,21.466643 -0.55636,0.05965 -1.06697,0.21641 -1.53285,0.477977 8.03715,-14.322144 -4.40334,-27.778564 -18.533094,-29.482832 -12.849367,-1.553975 -18.722418,6.672659 -29.407685,11.265315 -0.574254,-0.838375 -0.979808,-1.755304 -1.220329,-2.744143 2.822356,-2.428645 3.32734,-6.528414 7.006304,-8.920933 3.717986,-2.413564 8.764591,-3.4836 13.137854,-4.069694 11.160097,-1.496806 27.06024,0.550395 32.56965,12.007753 z m -61.992329,9.726421 c 1.42464,-2.629974 3.48658,-5.034592 5.728806,-7.003323 3.447559,9.600238 -8.145438,20.817415 -8.665416,30.697111 0.47201,-9.010991 -1.012866,-16.401977 2.93661,-23.693788 z m -0.414927,33.546476 c -0.369771,-1.295476 -0.727614,-2.602965 -1.09108,-3.904405 0.315242,-0.02556 0.582772,-0.153361 0.790663,-0.354434 -0.03409,1.692255 0.155916,3.366362 0.558915,5.028542 -0.0085,-0.0029 -0.02556,-0.0029 -0.03407,-0.0029 -0.07668,-0.255602 -0.153361,-0.511203 -0.225781,-0.766806 z m 69.927326,-7.150549 c 0.14739,6.720711 0.0341,13.636789 -0.24027,20.345488 -1.14518,3.826275 -3.09287,8.999062 -3.198,13.095847 -5.66576,7.541282 -10.90466,17.273672 -17.69456,23.811032 -5.5124,1.38562 -11.063902,2.55789 -16.711597,0.95279 -6.41416,-3.01772 -16.362954,-11.7973 -19.630144,-18.08818 -3.958507,-10.805485 -7.312856,-28.241456 -6.663627,-39.654082 0.29735,-5.15481 7.384936,-26.134446 2.605946,-28.472949 0.141434,-0.279457 0.276904,-0.556359 0.417484,-0.835817 1.20823,0.589588 2.109994,0.417482 2.714152,-0.513761 -0.114173,0.291387 -0.117572,0.580217 -0.0061,0.865639 -2.464685,2.230212 1.992758,5.815967 3.669933,6.771833 5.999404,3.417397 13.161965,-0.682458 19.158301,-1.650167 7.775662,-1.259351 20.829432,2.852433 14.283042,12.912414 -0.18063,-0.0426 -0.35784,-0.104792 -0.52313,-0.192554 0.53165,-0.468603 0.80514,-1.039959 0.82048,-1.722331 -0.28883,-1.827383 -3.43554,-3.480532 -3.7271,-0.408963 -1.76732,1.695152 -1.2804,6.164608 1.77941,6.050439 6.25484,2.61796 15.4312,-0.180625 20.5619,-4.210957 0.63134,2.485644 1.64412,4.923319 2.23021,7.408963 0.1261,1.169208 0.13206,2.359461 0.15336,3.534719 z m -0.64668,25.71364 c 0.006,-0.06816 0.009,-0.132062 0.0171,-0.19511 -0.006,0.05965 -0.0171,0.132061 -0.0171,0.19511 z M 1.63823e-7,213.66622 c 0,-0.006 0,-0.009 0.002923756177,-0.0171 -0.0015837,0.007 -0.002070993,0.009 -0.002923756177,0.0171 z M 195.93183,204.68522 c -1.87253,-15.97222 -7.46306,-29.36857 -21.16605,-38.22339 -16.49221,-10.65511 -33.59461,-20.46869 -50.36636,-30.68509 -0.8987,-13.58568 -0.67308,-34.84792 7.3339,-46.585165 4.96838,-7.28278 18.83368,-13.276135 11.45174,-24.403169 2.96957,-3.772173 1.83044,-6.714747 1.98372,-10.928686 0.0256,-0.111615 0.0512,-0.222374 0.0928,-0.345915 5.54546,-3.669933 3.11988,-10.73034 0.73358,-15.945216 0.0766,0.161881 0.15337,0.333986 0.22834,0.499276 -0.22578,-0.523133 -0.46008,-1.03996 -0.70035,-1.550907 0.0512,0.12013 0.10817,0.243673 0.16187,0.366363 -0.0681,-0.16529 -0.14739,-0.328023 -0.22236,-0.489904 0.009,0.02556 0.0256,0.05112 0.0341,0.06816 l -0.0256,-0.05112 c 0.009,0.02556 0.0171,0.0426 0.0341,0.06816 -0.0766,-0.159326 -0.14995,-0.324614 -0.22237,-0.489904 0.0512,0.117572 0.10477,0.23771 0.15932,0.357842 -0.12949,-0.270937 -0.24622,-0.544432 -0.37232,-0.817925 0.017,0.0426 0.0426,0.09287 0.0681,0.138025 -0.0256,-0.05964 -0.0597,-0.12013 -0.10477,-0.22493 0.0171,0.0426 0.0341,0.0852 0.0512,0.123541 C 144.03844,33.244829 138.59217,21.751092 135.03947,24.66964 128.42696,7.639394 114.97344,-0.44887422 96.825106,0.20035525 96.756945,0.19730966 90.985027,-0.50936682 90.188572,0.74989912 79.97523,2.0303794 69.410178,6.8034056 65.568908,16.992721 58.367324,19.697841 52.42509,29.246875 50.155771,36.20504 c -1.00392,3.074806 -5.076596,16.047372 0.811109,15.527392 0.246231,1.283463 0.466047,2.569907 0.661157,3.862315 -0.01704,-0.117571 -0.03409,-0.237709 -0.05112,-0.360398 0.784698,5.001448 1.803442,9.89171 2.972652,14.812047 -8.467071,6.417143 4.568628,17.330749 9.876628,20.591974 1.052058,4.144838 1.683225,8.683391 3.480618,12.58481 -1.085031,4.65878 2.257306,12.55176 2.723182,17.25569 0.58618,5.99028 0.426856,12.16998 -0.372327,18.14228 -7.288829,-0.76339 -13.149952,6.65759 -17.971031,11.05795 -8.226548,7.5112 -17.045241,10.45377 -27.006134,15.02845 -13.161182,6.04362 -19.7072923,14.92971 -22.6264451,25.88344 1.3199023,1.75855 3.9465536,5.28671 4.6561807,5.9413 0.9027524,-8.28977 1.9269066,-17.27077 8.9740994,-22.78674 7.646417,-5.9903 19.272471,-6.96115 27.868704,-11.60493 9.206442,-4.96839 17.469115,-11.69216 24.156769,-19.73835 3.288234,32.04363 67.790317,31.07882 56.248447,-0.1295 12.00477,7.12951 24.00945,14.25892 36.0172,21.38544 10.25544,6.08657 21.59888,10.97377 25.89103,22.9154 3.52867,9.81955 0.63526,19.68144 2.3835,29.53089 0.26172,1.47448 0.69489,4.07369 1.77744,5.71432 1.47239,-0.9102 6.13771,-4.48539 6.13771,-4.48539 -1.102,-4.59871 -0.62128,-10.83957 -0.83071,-12.64753" />
    <path
       id="path1508-5-4-6"
       style="fill:#002d3b;fill-opacity:1;fill-rule:nonzero;stroke:none;stroke-width:0.30056897"
       d="m 36.715088,212.80008 c 0.01704,-1.1031 -2.825338,-22.90338 -7.348896,-14.5746 -1.962767,1.11809 -1.430775,3.0898 -0.621965,4.64378 1.20823,3.33935 -0.381698,13.02368 3.285167,15.06756 0.04004,0.40982 -0.270768,1.673 0.673425,2.32529 0,0 3.403894,2.43914 3.993943,2.75906 0,0 0.142029,-0.4473 0.207889,-0.71398 0.0029,0 0.0029,0 0.006,0.004 0.592145,-2.05291 -0.09628,-5.35613 -0.303314,-7.35495 0.102246,-0.71567 0.138025,-1.43367 0.108203,-2.15505" />
    <path
       id="path1510-6-7-5"
       style="fill:#002d3b;fill-opacity:1;fill-rule:nonzero;stroke:none;stroke-width:0.30056897"
       d="m 167.75411,193.93086 c -3.94948,-1.32556 -6.42013,22.86129 -6.6005,26.20056 0.002,0 0.009,0 0.0171,0 0.0426,2.54588 1.73129,3.46562 3.90441,2.89452 1.57196,-0.41493 2.20618,-8.11238 2.37147,-9.03212 0.75744,-4.26804 3.22212,-10.50788 1.89359,-14.9142 0.26753,-1.61106 0.47201,-4.44245 -1.58396,-5.14876" />
    <path
       id="path490-1-6-0-7"
       style="fill:#002d3b;fill-opacity:1;fill-rule:nonzero;stroke:none;stroke-width:0.30056897"
       d="m 94.689356,93.756114 c 2.74116,1.517847 7.968044,2.326401 6.095514,-2.269319 -0.793216,-1.95365 -5.807024,-1.544944 -7.354949,-3.249127 -0.07668,-0.114173 -0.149954,-0.231746 -0.213002,-0.351878 -0.0426,-0.114173 -0.06816,-0.228338 -0.09287,-0.345915 -0.06816,-1.139132 3.483599,-25.999147 -1.623072,-21.595893 -1.130187,0.973844 0.252194,14.292067 0.01704,16.654597 -0.477975,4.78802 -2.302292,8.139388 3.174064,11.157109" />
    <path
       id="path492-7-9-3-2"
       style="fill:#002d3b;fill-opacity:1;fill-rule:nonzero;stroke:none;stroke-width:0.30056897"
       d="m 91.157619,101.91049 c 1.295476,0.40301 2.617961,0.58959 3.97052,0.56489 0.09031,0.017 0.177218,0.0426 0.26753,0.0681 7.904911,3.91948 21.800291,-6.242828 3.173977,-1.64412 -0.07663,0.004 -0.155909,0.004 -0.231744,0 -1.26838,-0.26157 -10.036037,0.17722 -7.180624,1.00691" />
    <path
       id="path494-3-6-4-8"
       style="fill:#002d3b;fill-opacity:1;fill-rule:nonzero;stroke:none;stroke-width:0.30056897"
       d="m 102.35989,106.69255 c -1.05803,0 -2.36552,0.70035 -3.384426,0.91378 -0.189155,0.009 -0.381697,0.0171 -0.574251,0.006 -2.720207,-0.58276 -4.460515,1.89964 -1.262423,2.69917 2.89146,0.7242 7.61344,-3.61891 5.22093,-3.61891" />
    <path
       id="path496-6-6-2-4"
       style="fill:#002d3b;fill-opacity:1;fill-rule:nonzero;stroke:none;stroke-width:0.30056897"
       d="m 68.900484,63.398613 c 0.982875,1.932692 7.50524,1.848513 8.990032,1.875607 1.773366,0.556361 8.791684,2.470649 9.32964,-0.570844 0.552953,-0.829854 -0.517167,-1.899634 -1.235324,-2.107013 -0.0852,-0.114172 -0.186589,-0.213 -0.306722,-0.294794 -0.33995,-1.839481 -5.043537,-1.472778 -6.546391,-1.650165 -0.685013,-0.198519 -1.361592,-0.379144 -2.082986,-0.363807 -0.435376,-0.117572 -0.877652,-0.09628 -1.322485,0.05964 -0.499274,-0.129504 -1.000851,-0.05964 -1.508817,0.216411 -0.712278,-1.635086 -4.466474,-0.06816 -5.395246,0.18659 -0.979892,-0.291387 -1.797393,-0.108204 -2.452671,0.552951 -2.458635,0.300759 -0.633893,3.558746 2.5308,2.097981" />
    <path
       id="path498-5-6-7-1"
       style="fill:#002d3b;fill-opacity:1;fill-rule:nonzero;stroke:none;stroke-width:0.30056897"
       d="m 109.68467,64.760204 c 0.009,0 0.0171,0 0.0256,-0.0029 -0.009,0.0029 -0.0171,0.0029 -0.0256,0.0058 z m -2.63594,0.853626 c 0.87467,-0.282866 1.74934,-0.56488 2.62699,-0.850302 0.1866,-0.02556 0.37574,-0.05112 0.56232,-0.06816 1.10609,0.715686 4.07566,-0.399591 5.24488,-0.814518 1.49689,-0.312686 4.76407,-0.483939 6.06254,-1.578002 0.82643,0.198519 2.62391,0.655194 3.42949,0.09884 0.37233,0.0426 0.7455,0.07668 1.12107,0.108204 1.35554,0.495868 2.44066,-2.221181 -0.78726,-2.380506 -0.50183,-0.276902 -1.02487,-0.489903 -1.57195,-0.643265 -0.57084,-0.21641 -1.14518,-0.276902 -1.72224,-0.180625 -1.09407,-0.330579 -2.66909,-0.141433 -3.76314,-0.01704 -1.80643,-1.34353 -7.50218,0.546988 -8.99003,1.508902 -1.12108,0.294795 -2.72618,0.67905 -3.0087,2.019767 -0.17126,0.318651 -0.24623,0.658601 -0.22833,1.021982 -0.63987,0.99787 -0.29736,1.590015 1.02496,1.776349" />
    <path
       id="path500-5-5-1-4"
       style="fill:#002d3b;fill-opacity:1;fill-rule:nonzero;stroke:none;stroke-width:0.30056897"
       d="m 72.302972,71.075191 c 0.189146,-0.246229 0.420891,-0.442191 0.690977,-0.582772 0.111615,-0.03407 0.225782,-0.06816 0.339951,-0.09031 0.45412,-0.01704 0.904745,-0.02556 1.358609,-0.02556 -1.827468,2.810342 1.580983,5.503449 4.280055,5.214875 1.286445,0.588736 2.611911,0.09287 3.318309,-1.133169 0.940786,-0.399591 1.42464,-1.091079 1.451734,-2.076935 0.934737,0.805145 1.890603,3.441509 3.333306,2.816307 2.194171,0.204482 -4.869217,-7.709551 -9.311665,-7.562239 -0.748061,-0.06816 -1.475761,-0.02556 -2.209168,0.22493 0.003,0.0032 0.003,0.0061 0.003,0.0085 -6.555422,-1.036977 -7.150549,7.55636 -4.962426,5.831047 0.639856,-0.826446 1.097043,-1.773367 1.70725,-2.623924" />
    <path
       id="path502-5-7-8-2"
       style="fill:#002d3b;fill-opacity:1;fill-rule:nonzero;stroke:none;stroke-width:0.30056897"
       d="m 125.63287,69.788746 c -3.57375,-4.189911 -9.86163,-3.576807 -14.58959,-1.277412 -0.97087,-0.264123 -2.04686,0.901678 -2.54886,1.623072 -1.00989,0.871603 -1.91156,1.81537 -2.07992,3.176961 0.0341,0.243675 0.0597,0.649229 0.20448,0.850303 0.59214,1.517849 1.97478,0.405554 2.58192,-0.360399 0.44815,-0.399591 0.87467,-0.820483 1.28337,-1.262417 0.27947,-0.210447 0.57427,-0.397036 0.88371,-0.558917 0.0171,0.155918 0.0426,0.312686 0.0682,0.466047 0.38511,0.9528 0.95578,1.761353 1.8515,2.305359 1.02197,0.442192 1.91462,0.535061 3.01772,0.375735 0.33995,0.05965 0.68501,0.0426 1.02496,-0.05112 2.03784,-0.282865 3.40846,-2.533867 3.2251,-4.445429 1.03697,0.174662 2.82534,1.55994 3.83522,1.217263 1.74329,2.064922 2.92759,-0.09628 1.24436,-2.061857" />
    <path
       id="path504-5-1-1-9"
       style="fill:#002d3b;fill-opacity:1;fill-rule:nonzero;stroke:none;stroke-width:0.30056897"
       d="m 131.43453,44.820953 c -0.009,-0.09884 -0.0256,-0.198517 -0.0426,-0.29735 0.0171,0.138025 0.0341,0.276902 0.0597,0.414927 -0.006,-0.0426 -0.009,-0.07668 -0.0171,-0.117572" />
    <path
       style="fill:#002d3b;fill-opacity:1;stroke-width:0.25663784"
       d="m 79.424006,60.411098 c -5.11274,0 -10.207179,1.753605 -12.827451,5.735342 l -5.577797,-0.792359 c -0.84179,-0.119581 -1.590947,0.05059 -1.590947,0.900829 0,0.850241 0.692187,1.473376 1.539827,1.539827 l 4.610888,0.361472 c -0.556648,1.546243 -0.798789,2.850094 -0.798789,4.585479 0,8.074854 6.569415,12.330846 14.644269,12.330846 8.074853,0 14.644269,-4.255992 14.644269,-12.330846 0,-8.074853 -6.569416,-12.33059 -14.644269,-12.33059 z m 0,21.581782 c -6.35889,-0.476009 -11.085311,-2.46805 -11.564615,-6.937768 -0.870747,-8.120099 5.187934,-11.564615 11.564615,-11.564615 6.37668,0 11.564615,2.874511 11.564615,9.251191 0,6.376681 -0.638264,10.06911 -11.564615,9.251192 z"
       id="path215748" />
    <path
       style="fill:#002d3b;fill-opacity:1;stroke-width:0.25663784"
       d="m 133.14601,65.076555 -6.32755,1.084418 c -0.74323,-1.132799 -2.2575,-3.61371 -3.29894,-4.511942 -2.65492,-2.290236 -6.05024,-2.394644 -9.56053,-2.394644 -5.24362,0 -9.85002,1.615235 -12.43718,5.768918 -1.12305,-1.435889 -2.875873,-2.513429 -4.830183,-2.361581 -4.605456,0.35784 -5.513998,1.416171 -6.410434,1.906606 -0.746046,0.408311 -1.019879,1.344012 -0.611568,2.090315 0.408054,0.74579 1.343756,1.019366 2.090059,0.611568 0.450913,-0.246885 2.16349,-1.681938 3.756185,-1.579698 1.679063,0.107783 4.227182,1.420026 4.227182,3.102544 0,0.104708 0.01078,0.207106 0.03054,0.306168 -0.299497,1.165136 -0.458869,2.385706 -0.458869,3.642975 0,8.074853 6.569418,12.330845 14.644268,12.330845 6.06256,0 10.52276,-0.991073 12.65978,-6.662257 0.19132,-1.193455 0.58466,-2.153971 -0.21143,-2.453468 0,0 -1.82865,0.174178 -1.62234,2.018539 -1.68739,4.478587 -6.07922,4.645338 -10.82601,4.017789 -6.01521,-0.795239 -11.74535,-0.127321 -11.56461,-9.251192 0.12629,-6.37543 5.18793,-10.407901 11.56461,-10.407901 5.73021,0 11.02011,2.560704 11.9091,8.210843 0.13217,0.839975 0.91979,1.413561 1.76054,1.281649 0.83997,-0.132168 0.92818,-0.536904 0.79627,-1.37688 -0.14295,-0.909011 -0.37444,-2.158453 -0.68266,-3.016393 l 5.44017,-0.325322 c 0.84873,-0.05075 1.50368,-0.0028 1.50368,-0.853031 0,-0.850241 -0.70181,-1.322531 -1.54008,-1.178868 z"
       id="path215750" />
  </g>
  <g
     transform="matrix(0.21066394,0,0,0.21066394,54.597655,50.819607)"
     style="fill:#004553;fill-opacity:0.98431373"
     id="g215754" />
  <g
     transform="matrix(0.21066394,0,0,0.21066394,54.597655,50.819607)"
     style="fill:#004553;fill-opacity:0.98431373"
     id="g215756" />
  <g
     transform="matrix(0.21066394,0,0,0.21066394,54.597655,50.819607)"
     style="fill:#004553;fill-opacity:0.98431373"
     id="g215758" />
  <g
     transform="matrix(0.21066394,0,0,0.21066394,54.597655,50.819607)"
     style="fill:#004553;fill-opacity:0.98431373"
     id="g215760" />
  <g
     transform="matrix(0.21066394,0,0,0.21066394,54.597655,50.819607)"
     style="fill:#004553;fill-opacity:0.98431373"
     id="g215762" />
  <g
     transform="matrix(0.21066394,0,0,0.21066394,54.597655,50.819607)"
     style="fill:#004553;fill-opacity:0.98431373"
     id="g215764" />
  <g
     transform="matrix(0.21066394,0,0,0.21066394,54.597655,50.819607)"
     style="fill:#004553;fill-opacity:0.98431373"
     id="g215766" />
  <g
     transform="matrix(0.21066394,0,0,0.21066394,54.597655,50.819607)"
     style="fill:#004553;fill-opacity:0.98431373"
     id="g215768" />
  <g
     transform="matrix(0.21066394,0,0,0.21066394,54.597655,50.819607)"
     style="fill:#004553;fill-opacity:0.98431373"
     id="g215770" />
  <g
     transform="matrix(0.21066394,0,0,0.21066394,54.597655,50.819607)"
     style="fill:#004553;fill-opacity:0.98431373"
     id="g215772" />
  <g
     transform="matrix(0.21066394,0,0,0.21066394,54.597655,50.819607)"
     style="fill:#004553;fill-opacity:0.98431373"
     id="g215774" />
  <g
     transform="matrix(0.21066394,0,0,0.21066394,54.597655,50.819607)"
     style="fill:#004553;fill-opacity:0.98431373"
     id="g215776" />
  <g
     transform="matrix(0.21066394,0,0,0.21066394,54.597655,50.819607)"
     style="fill:#004553;fill-opacity:0.98431373"
     id="g215778" />
  <g
     transform="matrix(0.21066394,0,0,0.21066394,54.597655,50.819607)"
     style="fill:#004553;fill-opacity:0.98431373"
     id="g215780" />
  <g
     transform="matrix(0.21066394,0,0,0.21066394,54.597655,50.819607)"
     style="fill:#004553;fill-opacity:0.98431373"
     id="g215782" />
</svg>
